G04*
G04 #@! TF.GenerationSoftware,Altium Limited,Altium Designer,20.0.13 (296)*
G04*
G04 Layer_Color=8388736*
%FSLAX44Y44*%
%MOMM*%
G71*
G01*
G75*
%ADD18R,0.6000X0.5000*%
%ADD19R,0.4000X1.6000*%
%ADD20R,1.0000X0.8000*%
%ADD21R,0.8000X1.0000*%
%ADD22R,1.1000X1.2000*%
G04:AMPARAMS|DCode=24|XSize=0.84mm|YSize=0.2mm|CornerRadius=0.025mm|HoleSize=0mm|Usage=FLASHONLY|Rotation=0.000|XOffset=0mm|YOffset=0mm|HoleType=Round|Shape=RoundedRectangle|*
%AMROUNDEDRECTD24*
21,1,0.8400,0.1500,0,0,0.0*
21,1,0.7900,0.2000,0,0,0.0*
1,1,0.0500,0.3950,-0.0750*
1,1,0.0500,-0.3950,-0.0750*
1,1,0.0500,-0.3950,0.0750*
1,1,0.0500,0.3950,0.0750*
%
%ADD24ROUNDEDRECTD24*%
G04:AMPARAMS|DCode=25|XSize=0.2mm|YSize=0.84mm|CornerRadius=0.025mm|HoleSize=0mm|Usage=FLASHONLY|Rotation=0.000|XOffset=0mm|YOffset=0mm|HoleType=Round|Shape=RoundedRectangle|*
%AMROUNDEDRECTD25*
21,1,0.2000,0.7900,0,0,0.0*
21,1,0.1500,0.8400,0,0,0.0*
1,1,0.0500,0.0750,-0.3950*
1,1,0.0500,-0.0750,-0.3950*
1,1,0.0500,-0.0750,0.3950*
1,1,0.0500,0.0750,0.3950*
%
%ADD25ROUNDEDRECTD25*%
%ADD26R,0.2500X1.6500*%
%ADD27R,0.9000X0.3000*%
%ADD28R,1.1000X0.7000*%
%ADD29R,1.1000X1.4001*%
G04:AMPARAMS|DCode=30|XSize=0.6mm|YSize=1.35mm|CornerRadius=0.045mm|HoleSize=0mm|Usage=FLASHONLY|Rotation=270.000|XOffset=0mm|YOffset=0mm|HoleType=Round|Shape=RoundedRectangle|*
%AMROUNDEDRECTD30*
21,1,0.6000,1.2600,0,0,270.0*
21,1,0.5100,1.3500,0,0,270.0*
1,1,0.0900,-0.6300,-0.2550*
1,1,0.0900,-0.6300,0.2550*
1,1,0.0900,0.6300,0.2550*
1,1,0.0900,0.6300,-0.2550*
%
%ADD30ROUNDEDRECTD30*%
%ADD31R,0.7112X3.3274*%
%ADD32R,0.8636X2.7940*%
%ADD33R,1.1430X1.8288*%
%ADD34R,1.0414X0.7874*%
%ADD35R,0.8890X0.9398*%
%ADD36R,0.7112X1.0922*%
%ADD37R,0.5400X0.6365*%
%ADD38R,0.5000X0.6000*%
%ADD39R,0.5000X0.5000*%
%ADD40R,0.5000X0.5000*%
%ADD41R,28.2250X6.4750*%
%ADD42R,1.1700X5.0000*%
%ADD43R,1.1700X4.0000*%
%ADD44R,1.1700X4.5999*%
%ADD45R,3.1000X3.1000*%
%ADD46O,1.2500X2.1500*%
%ADD47R,1.1999X1.0000*%
D18*
X255000Y141000D02*
D03*
Y151000D02*
D03*
X23000Y146000D02*
D03*
Y136000D02*
D03*
X11000Y146000D02*
D03*
Y136000D02*
D03*
X226000Y127600D02*
D03*
Y117600D02*
D03*
X223000Y231600D02*
D03*
Y221600D02*
D03*
X211000Y231600D02*
D03*
Y221600D02*
D03*
X112000Y125000D02*
D03*
Y135000D02*
D03*
D19*
X192539Y260690D02*
D03*
X199042D02*
D03*
X205544D02*
D03*
X212047D02*
D03*
X218549D02*
D03*
D20*
X73500Y111501D02*
D03*
X96500Y102000D02*
D03*
X73500Y92499D02*
D03*
X96500Y125499D02*
D03*
X73500Y135000D02*
D03*
X96500Y144501D02*
D03*
D21*
X128501Y111500D02*
D03*
X119000Y88500D02*
D03*
X109499Y111500D02*
D03*
D22*
X184000Y123600D02*
D03*
Y104600D02*
D03*
X169000D02*
D03*
Y123600D02*
D03*
D24*
X237350Y200600D02*
D03*
Y196600D02*
D03*
Y192600D02*
D03*
Y188600D02*
D03*
Y184600D02*
D03*
Y180600D02*
D03*
Y176600D02*
D03*
Y172600D02*
D03*
Y168600D02*
D03*
Y164600D02*
D03*
Y160600D02*
D03*
Y156600D02*
D03*
Y152600D02*
D03*
Y148600D02*
D03*
X168650D02*
D03*
Y152600D02*
D03*
Y156600D02*
D03*
Y160600D02*
D03*
Y164600D02*
D03*
Y168600D02*
D03*
Y172600D02*
D03*
Y176600D02*
D03*
Y180600D02*
D03*
Y184600D02*
D03*
Y188600D02*
D03*
Y192600D02*
D03*
Y196600D02*
D03*
Y200600D02*
D03*
D25*
X177000Y208950D02*
D03*
X181000D02*
D03*
X185000D02*
D03*
X189000D02*
D03*
X193000D02*
D03*
X197000D02*
D03*
X201000D02*
D03*
X205000D02*
D03*
X209000D02*
D03*
X213000D02*
D03*
X217000D02*
D03*
X221000D02*
D03*
X225000D02*
D03*
X229000D02*
D03*
Y140250D02*
D03*
X225000D02*
D03*
X221000D02*
D03*
X217000D02*
D03*
X213000D02*
D03*
X209000D02*
D03*
X205000D02*
D03*
X201000D02*
D03*
X197000D02*
D03*
X193000D02*
D03*
X189000D02*
D03*
X185000D02*
D03*
X181000D02*
D03*
X177000D02*
D03*
D26*
X165000Y224600D02*
D03*
D27*
X179000Y232100D02*
D03*
Y227100D02*
D03*
Y222100D02*
D03*
Y217100D02*
D03*
X151000D02*
D03*
Y222100D02*
D03*
Y227100D02*
D03*
Y232100D02*
D03*
D28*
X248029Y240480D02*
D03*
X248036Y212697D02*
D03*
D29*
X246499Y226601D02*
D03*
D30*
X28150Y120500D02*
D03*
Y111000D02*
D03*
Y101500D02*
D03*
X51850D02*
D03*
Y120500D02*
D03*
D31*
X130800Y175705D02*
D03*
X1200D02*
D03*
D32*
X130000Y283355D02*
D03*
D33*
X3400Y288205D02*
D03*
D34*
X69100Y162955D02*
D03*
D35*
X24300Y163705D02*
D03*
D36*
X119200Y288355D02*
D03*
X108200D02*
D03*
X97200D02*
D03*
X86200D02*
D03*
X75200D02*
D03*
X64200D02*
D03*
X53200D02*
D03*
X42200D02*
D03*
D37*
X141000Y294217D02*
D03*
Y304982D02*
D03*
Y256618D02*
D03*
Y267383D02*
D03*
D38*
X48000Y147000D02*
D03*
X38000D02*
D03*
X131000D02*
D03*
X141000D02*
D03*
X109000D02*
D03*
X119000D02*
D03*
X70162Y146949D02*
D03*
X60162D02*
D03*
X236000Y244600D02*
D03*
X226000D02*
D03*
X123833Y135167D02*
D03*
X133833D02*
D03*
X141000Y282600D02*
D03*
X151000D02*
D03*
X141000Y245000D02*
D03*
X151000D02*
D03*
D39*
X154000Y188600D02*
D03*
X144000D02*
D03*
X154000Y200600D02*
D03*
X144000D02*
D03*
X154000Y164600D02*
D03*
X144000D02*
D03*
X181000Y89600D02*
D03*
X171000D02*
D03*
X35000Y89000D02*
D03*
X45000D02*
D03*
X48000Y134000D02*
D03*
X38000D02*
D03*
X179000Y252600D02*
D03*
X169000D02*
D03*
X179000Y241600D02*
D03*
X169000D02*
D03*
D40*
X202000Y127600D02*
D03*
Y117600D02*
D03*
X252000Y164600D02*
D03*
Y174600D02*
D03*
X249000Y200600D02*
D03*
Y190600D02*
D03*
X235000Y221600D02*
D03*
Y231600D02*
D03*
X214000Y127600D02*
D03*
Y117600D02*
D03*
X199000Y221600D02*
D03*
Y231600D02*
D03*
X154000Y118600D02*
D03*
Y108600D02*
D03*
D41*
X131965Y22213D02*
D03*
D42*
X6590Y29588D02*
D03*
X246590D02*
D03*
D43*
X21590Y34590D02*
D03*
X36590D02*
D03*
X51590D02*
D03*
X66590D02*
D03*
X81590D02*
D03*
X96590D02*
D03*
X126590D02*
D03*
X141590D02*
D03*
X156590D02*
D03*
X171590D02*
D03*
X186590D02*
D03*
X201590D02*
D03*
X216590D02*
D03*
X231590D02*
D03*
D44*
X111590Y31590D02*
D03*
D45*
X203000Y174600D02*
D03*
D46*
X154290Y303093D02*
D03*
X256790D02*
D03*
Y266094D02*
D03*
X154290D02*
D03*
D47*
X261501Y208100D02*
D03*
Y245100D02*
D03*
M02*
