G04*
G04 #@! TF.GenerationSoftware,Altium Limited,Altium Designer,20.0.13 (296)*
G04*
G04 Layer_Physical_Order=4*
G04 Layer_Color=16711680*
%FSLAX44Y44*%
%MOMM*%
G71*
G01*
G75*
%ADD10C,0.2000*%
%ADD46O,1.2500X2.1500*%
%ADD47R,1.1999X1.0000*%
%ADD55C,0.4600*%
%ADD56C,0.6500*%
%ADD63R,1.0000X2.1000*%
%ADD64C,0.7000*%
G36*
X23600Y290500D02*
X27522D01*
Y283400D01*
X27522Y283400D01*
X27832Y281839D01*
X28716Y280516D01*
X106016Y203216D01*
X106016Y203216D01*
X107339Y202332D01*
X108900Y202022D01*
X141811D01*
X148623Y195210D01*
X148137Y194036D01*
X56958D01*
X56958Y194036D01*
X55397Y193726D01*
X54074Y192842D01*
X54074Y192842D01*
X12414Y151181D01*
X12193Y150851D01*
X10979Y150040D01*
X9807Y148287D01*
X9396Y146219D01*
X9807Y144151D01*
X10979Y142398D01*
X12732Y141226D01*
X14800Y140815D01*
X16868Y141226D01*
X18621Y142398D01*
X19792Y144151D01*
X20204Y146219D01*
X20002Y147234D01*
X58647Y185880D01*
X144768D01*
X145573Y184898D01*
X145486Y184458D01*
X145644Y183660D01*
X144839Y182678D01*
X105401D01*
X103840Y182368D01*
X102517Y181484D01*
X102517Y181484D01*
X74559Y153525D01*
X72945Y153204D01*
X71192Y152033D01*
X70021Y150280D01*
X69609Y148212D01*
X69222Y147740D01*
X65251D01*
X64572Y149010D01*
X65154Y149881D01*
X65565Y151949D01*
X65154Y154017D01*
X63983Y155770D01*
X62230Y156941D01*
X60162Y157353D01*
X58094Y156941D01*
X56340Y155770D01*
X55169Y154017D01*
X54758Y151949D01*
X54759Y151942D01*
X53636Y151078D01*
X52000Y151404D01*
X49932Y150992D01*
X48179Y149821D01*
X47007Y148068D01*
X46596Y146000D01*
X47007Y143932D01*
X48179Y142179D01*
X49932Y141007D01*
X52000Y140596D01*
X52585Y139897D01*
X52494Y138506D01*
X51113Y136439D01*
X50627Y134000D01*
X49678Y133001D01*
X48801Y132967D01*
X36086Y145682D01*
X36711Y146853D01*
X38000Y146596D01*
X40068Y147008D01*
X41821Y148179D01*
X42993Y149932D01*
X43404Y152000D01*
X42993Y154068D01*
X41821Y155821D01*
X40068Y156993D01*
X38000Y157404D01*
X35932Y156993D01*
X34179Y155821D01*
X33008Y154068D01*
X32612Y152080D01*
X32556Y151968D01*
X31478Y151110D01*
X30000Y151404D01*
X27932Y150992D01*
X26179Y149821D01*
X25008Y148068D01*
X24596Y146000D01*
X25008Y143932D01*
X26179Y142179D01*
X27213Y141488D01*
X27498Y140191D01*
X27378Y139966D01*
X26334Y138403D01*
X25922Y136335D01*
X26334Y134267D01*
X27505Y132514D01*
X29258Y131343D01*
X31326Y130932D01*
X33394Y131343D01*
X35147Y132514D01*
X35621Y133223D01*
X36885Y133348D01*
X44616Y125616D01*
X44616Y125616D01*
X45939Y124732D01*
X47500Y124422D01*
X65909D01*
X66715Y123440D01*
X66628Y123000D01*
X67113Y120561D01*
X68494Y118494D01*
X70561Y117113D01*
X73000Y116628D01*
X75439Y117113D01*
X77506Y118494D01*
X78887Y120561D01*
X79373Y123000D01*
X79285Y123440D01*
X80091Y124422D01*
X115386D01*
X115386Y124422D01*
X116946Y124732D01*
X118270Y125616D01*
X119316Y125513D01*
X119661Y124997D01*
X121728Y123616D01*
X122020Y123558D01*
X122506Y122384D01*
X122208Y121938D01*
X121723Y119500D01*
X121873Y118746D01*
X120677Y118250D01*
X120506Y118506D01*
X118439Y119887D01*
X116000Y120372D01*
X113561Y119887D01*
X111494Y118506D01*
X110113Y116439D01*
X109628Y114000D01*
X110113Y111561D01*
X111494Y109494D01*
X113561Y108113D01*
X116000Y107627D01*
X118439Y108113D01*
X120506Y109494D01*
X121887Y111561D01*
X122372Y114000D01*
X122222Y114754D01*
X123419Y115250D01*
X123590Y114994D01*
X125657Y113612D01*
X126161Y113512D01*
X126529Y112297D01*
X83890Y69658D01*
X81120D01*
X81120Y69658D01*
X79559Y69347D01*
X78236Y68463D01*
X78236Y68463D01*
X71546Y61773D01*
X70282Y61898D01*
X69970Y62365D01*
Y77059D01*
X70974Y78561D01*
X71459Y81000D01*
X70974Y83439D01*
X69592Y85506D01*
X67525Y86887D01*
X65086Y87373D01*
X62648Y86887D01*
X60581Y85506D01*
X59199Y83439D01*
X58714Y81000D01*
X59199Y78561D01*
X60581Y76494D01*
X61813Y75670D01*
Y63228D01*
X60823Y62566D01*
X59442Y60499D01*
X59220Y59382D01*
X57925D01*
X57702Y60499D01*
X56321Y62566D01*
X54254Y63948D01*
X51815Y64433D01*
X49376Y63948D01*
X47309Y62566D01*
X45928Y60499D01*
X45443Y58060D01*
X45928Y55622D01*
X47309Y53554D01*
X49376Y52173D01*
X51815Y51688D01*
X53257Y51975D01*
X55962Y49271D01*
X55962Y49271D01*
X57285Y48386D01*
X58846Y48076D01*
X58846Y48076D01*
X67695D01*
X67695Y48076D01*
X69255Y48386D01*
X70579Y49271D01*
X75577Y54269D01*
X76841Y54144D01*
X77235Y53554D01*
X79302Y52173D01*
X81741Y51688D01*
X84079Y52153D01*
X93116Y43116D01*
X94439Y42232D01*
X96000Y41922D01*
X96000Y41922D01*
X203000D01*
X203000Y41922D01*
X204561Y42232D01*
X205884Y43116D01*
X245884Y83116D01*
X245884Y83116D01*
X246768Y84439D01*
X247078Y86000D01*
Y153615D01*
X248821Y154779D01*
X249993Y156532D01*
X250404Y158600D01*
X249993Y160668D01*
X248821Y162421D01*
X247068Y163592D01*
X245000Y164004D01*
X244078Y164760D01*
Y178050D01*
X244300Y178298D01*
X245348Y178924D01*
X246999Y178596D01*
X249067Y179007D01*
X250821Y180179D01*
X251992Y181932D01*
X252403Y184000D01*
X251992Y186068D01*
X251078Y187436D01*
Y192432D01*
X252348Y193425D01*
X253500Y193196D01*
X255567Y193607D01*
X257321Y194778D01*
X258492Y196532D01*
X258903Y198600D01*
X258659Y199830D01*
X259614Y201100D01*
X260501D01*
Y208100D01*
Y215100D01*
X257078D01*
Y238100D01*
X260501D01*
Y245100D01*
X262501D01*
Y238100D01*
X264597D01*
Y215100D01*
X262501D01*
Y208100D01*
Y201100D01*
X264597D01*
Y146318D01*
X263477Y145719D01*
X263068Y145992D01*
X261000Y146404D01*
X258932Y145992D01*
X257179Y144821D01*
X256007Y143068D01*
X255596Y141000D01*
X256007Y138932D01*
X257179Y137179D01*
X258932Y136007D01*
X261000Y135596D01*
X263068Y136007D01*
X263477Y136280D01*
X264597Y135682D01*
Y132884D01*
X264521Y132710D01*
X263471Y131780D01*
X262447Y131782D01*
X262189Y131732D01*
X261927Y131730D01*
X259010Y131129D01*
X258689Y130993D01*
X258355Y130897D01*
X255708Y129530D01*
X255436Y129313D01*
X255140Y129130D01*
X252960Y127099D01*
X252757Y126816D01*
X252521Y126560D01*
X250972Y124016D01*
X250852Y123689D01*
X250695Y123379D01*
X249890Y120511D01*
X249863Y120163D01*
X249795Y119822D01*
Y116843D01*
X249863Y116502D01*
X249890Y116155D01*
X250695Y113287D01*
X250852Y112976D01*
X250972Y112649D01*
X252521Y110105D01*
X252757Y109849D01*
X252960Y109566D01*
X255140Y107535D01*
X255436Y107352D01*
X255708Y107135D01*
X258354Y105768D01*
X258689Y105672D01*
X259010Y105536D01*
X261927Y104935D01*
X262189Y104934D01*
X262447Y104883D01*
X263471Y104885D01*
X264521Y103955D01*
X264597Y103782D01*
Y7034D01*
X264502Y6561D01*
X264318Y6115D01*
X264049Y5713D01*
X263878Y5542D01*
X263878Y5542D01*
X256584Y-1752D01*
X256413Y-1923D01*
X256012Y-2191D01*
X255566Y-2376D01*
X255092Y-2470D01*
X254851D01*
X-19D01*
X-507D01*
X-1408Y-2097D01*
X-2097Y-1408D01*
X-2470Y-507D01*
Y103782D01*
X-2395Y103955D01*
X-1345Y104885D01*
X-320Y104883D01*
X-63Y104934D01*
X199Y104935D01*
X3117Y105536D01*
X3437Y105672D01*
X3772Y105768D01*
X6418Y107135D01*
X6691Y107352D01*
X6987Y107535D01*
X9166Y109566D01*
X9369Y109849D01*
X9605Y110105D01*
X11154Y112649D01*
X11274Y112976D01*
X11431Y113287D01*
X12236Y116155D01*
X12263Y116502D01*
X12331Y116843D01*
Y119822D01*
X12263Y120163D01*
X12236Y120511D01*
X11431Y123379D01*
X11274Y123689D01*
X11154Y124016D01*
X9605Y126560D01*
X9369Y126816D01*
X9166Y127099D01*
X6987Y129130D01*
X6690Y129313D01*
X6418Y129530D01*
X3772Y130897D01*
X3437Y130993D01*
X3117Y131129D01*
X199Y131730D01*
X-63Y131732D01*
X-320Y131782D01*
X-1345Y131780D01*
X-1413Y131807D01*
X-2393Y132706D01*
X-2470Y132884D01*
Y306182D01*
X-800D01*
Y305000D01*
X6200D01*
X13200D01*
Y312451D01*
X23600D01*
Y290500D01*
D02*
G37*
G36*
X257790Y290403D02*
X258944Y290555D01*
X260951Y291387D01*
X262674Y292709D01*
X263326Y293559D01*
X264597Y293128D01*
Y276059D01*
X263326Y275628D01*
X262674Y276478D01*
X260951Y277801D01*
X258944Y278632D01*
X257790Y278784D01*
Y266094D01*
X255790D01*
Y278784D01*
X254636Y278632D01*
X252629Y277801D01*
X250906Y276478D01*
X249584Y274755D01*
X249442Y274412D01*
X248172Y274665D01*
X248172Y294523D01*
X249442Y294776D01*
X249584Y294432D01*
X250906Y292709D01*
X252629Y291387D01*
X254636Y290555D01*
X255790Y290403D01*
Y303093D01*
X257790D01*
Y290403D01*
D02*
G37*
G36*
X164368Y269409D02*
X165539Y269176D01*
X191149D01*
X191635Y268003D01*
X185962Y262329D01*
X184374Y262538D01*
X183491Y263861D01*
X181423Y265242D01*
X178985Y265727D01*
X176546Y265242D01*
X174478Y263861D01*
X173097Y261793D01*
X172612Y259355D01*
X172799Y258414D01*
X171994Y257432D01*
X162871D01*
X162022Y258703D01*
X162328Y259441D01*
X162611Y261595D01*
Y265094D01*
X154290D01*
Y267094D01*
X162611D01*
Y269105D01*
X163881Y269735D01*
X164368Y269409D01*
D02*
G37*
G36*
X146847Y311181D02*
X146252Y309746D01*
X145969Y307593D01*
Y304093D01*
X154290D01*
Y303093D01*
X155290D01*
Y290403D01*
X155778Y290467D01*
X155985Y289214D01*
X154313Y288881D01*
X152246Y287500D01*
X150864Y285433D01*
X150746Y284839D01*
X142616Y276709D01*
X141732Y275386D01*
X141422Y273825D01*
X141422Y273825D01*
Y258364D01*
X141422Y258364D01*
X141477Y258087D01*
X140306Y257461D01*
X137078Y260689D01*
Y290500D01*
X141200D01*
Y312451D01*
X146122D01*
X146847Y311181D01*
D02*
G37*
G36*
X225728Y237301D02*
X225557Y237294D01*
X225387Y237270D01*
X225216Y237229D01*
X225045Y237170D01*
X224874Y237094D01*
X224702Y237000D01*
X224531Y236890D01*
X224360Y236762D01*
X224189Y236616D01*
X224018Y236454D01*
X222604Y237868D01*
X222766Y238039D01*
X222912Y238210D01*
X223040Y238382D01*
X223150Y238553D01*
X223244Y238724D01*
X223320Y238895D01*
X223379Y239066D01*
X223420Y239237D01*
X223444Y239407D01*
X223451Y239578D01*
X225728Y237301D01*
D02*
G37*
G36*
X163973Y239158D02*
X163775Y238943D01*
X163599Y238712D01*
X163444Y238467D01*
X163309Y238207D01*
X163197Y237932D01*
X163105Y237642D01*
X163034Y237337D01*
X162985Y237017D01*
X162957Y236682D01*
X162950Y236332D01*
X159733Y239550D01*
X160082Y239557D01*
X160417Y239585D01*
X160737Y239634D01*
X161042Y239705D01*
X161332Y239797D01*
X161607Y239909D01*
X161867Y240044D01*
X162112Y240199D01*
X162343Y240375D01*
X162558Y240573D01*
X163973Y239158D01*
D02*
G37*
G36*
X216231Y235848D02*
X211461Y231078D01*
X165247D01*
X164576Y232348D01*
X165587Y233861D01*
X166073Y236300D01*
X167131Y237022D01*
X215745D01*
X216231Y235848D01*
D02*
G37*
G36*
X99800Y290500D02*
X103922D01*
Y259566D01*
X103922Y259565D01*
X104232Y258005D01*
X105116Y256681D01*
X119235Y242563D01*
X119235Y242563D01*
X120558Y241678D01*
X122119Y241368D01*
X137767D01*
X137767Y227460D01*
X137596Y226600D01*
X137767Y225739D01*
Y221771D01*
X137767Y221771D01*
X137767D01*
X137596Y220599D01*
X138007Y218532D01*
X139179Y216779D01*
X140932Y215607D01*
X141500Y215494D01*
X141375Y214224D01*
X129544D01*
X74545Y269223D01*
X74889Y270145D01*
X75106Y270458D01*
X76697Y270667D01*
X78278Y271322D01*
X79636Y272364D01*
X87036Y279764D01*
X88078Y281122D01*
X88733Y282703D01*
X88956Y284400D01*
Y290500D01*
X90400D01*
Y312451D01*
X99800D01*
Y290500D01*
D02*
G37*
G36*
X49000D02*
X52922D01*
Y281000D01*
X52922Y281000D01*
X53232Y279439D01*
X54116Y278116D01*
X120881Y211352D01*
X120395Y210178D01*
X110589D01*
X35678Y285089D01*
Y290500D01*
X39600D01*
Y312451D01*
X49000D01*
Y290500D01*
D02*
G37*
G36*
X182006Y204815D02*
X182024Y204591D01*
X182055Y204380D01*
X182097Y204180D01*
X182152Y203993D01*
X182219Y203818D01*
X182299Y203656D01*
X182390Y203506D01*
X182494Y203368D01*
X182610Y203242D01*
X179390D01*
X179506Y203368D01*
X179609Y203506D01*
X179701Y203656D01*
X179780Y203818D01*
X179847Y203993D01*
X179902Y204180D01*
X179945Y204380D01*
X179975Y204591D01*
X179993Y204815D01*
X180000Y205051D01*
X182000D01*
X182006Y204815D01*
D02*
G37*
G36*
X226894Y187895D02*
X226768Y188011D01*
X226630Y188115D01*
X226480Y188206D01*
X226317Y188286D01*
X226143Y188353D01*
X225956Y188408D01*
X225756Y188450D01*
X225545Y188481D01*
X225321Y188499D01*
X225085Y188505D01*
Y190505D01*
X225321Y190511D01*
X225545Y190530D01*
X225756Y190560D01*
X225956Y190603D01*
X226143Y190658D01*
X226317Y190725D01*
X226480Y190804D01*
X226630Y190896D01*
X226768Y190999D01*
X226894Y191115D01*
Y187895D01*
D02*
G37*
G36*
X163900Y170719D02*
X163832Y170658D01*
X163771Y170575D01*
X163717Y170471D01*
X163670Y170345D01*
X163630Y170198D01*
X163598Y170029D01*
X163573Y169839D01*
X163544Y169395D01*
X163540Y169140D01*
X161540Y169166D01*
X161537Y169422D01*
X161485Y170062D01*
X161454Y170233D01*
X161416Y170381D01*
X161371Y170508D01*
X161319Y170614D01*
X161260Y170699D01*
X161194Y170761D01*
X163900Y170719D01*
D02*
G37*
G36*
X193727Y198940D02*
X194034Y198891D01*
X195179Y197178D01*
X196932Y196007D01*
X199000Y195596D01*
X201068Y196007D01*
X201632Y196384D01*
X202494Y195094D01*
X204561Y193713D01*
X207000Y193228D01*
X209439Y193713D01*
X211506Y195094D01*
X211685Y195112D01*
X220175Y186622D01*
X220175Y186621D01*
X221498Y185737D01*
X223059Y185427D01*
X223059Y185427D01*
X225100D01*
X226468Y184513D01*
X228536Y184102D01*
X228922Y183785D01*
Y177689D01*
X210116Y158884D01*
X209232Y157561D01*
X208922Y156000D01*
X208922Y156000D01*
Y154433D01*
X207652Y153675D01*
X206000Y154004D01*
X203932Y153593D01*
X202179Y152421D01*
X201007Y150668D01*
X200596Y148600D01*
X201007Y146532D01*
X202179Y144779D01*
X203932Y143608D01*
X206000Y143196D01*
X208068Y143608D01*
X209500Y144564D01*
X210932Y143608D01*
X213000Y143196D01*
X215068Y143608D01*
X216000Y144230D01*
X216932Y143608D01*
X219000Y143196D01*
X221068Y143608D01*
X222821Y144779D01*
X223993Y146532D01*
X224404Y148600D01*
X223993Y150668D01*
X223703Y151101D01*
X223871Y151850D01*
X225179Y152179D01*
X226922Y151014D01*
Y119691D01*
X225940Y118885D01*
X225500Y118972D01*
X223061Y118487D01*
X220994Y117106D01*
X219613Y115039D01*
X219128Y112600D01*
X219613Y110161D01*
X220994Y108094D01*
X223061Y106713D01*
X225500Y106228D01*
X225940Y106315D01*
X226922Y105509D01*
Y86289D01*
X196711Y56078D01*
X178497D01*
X177692Y57060D01*
X177891Y58060D01*
X177829Y58371D01*
X198884Y79426D01*
X198884Y79426D01*
X199768Y80750D01*
X200078Y82310D01*
X200078Y82310D01*
Y122927D01*
X201348Y123312D01*
X201494Y123094D01*
X203561Y121713D01*
X206000Y121228D01*
X208439Y121713D01*
X210506Y123094D01*
X211887Y125161D01*
X212372Y127600D01*
X211887Y130039D01*
X210506Y132106D01*
X208439Y133487D01*
X206000Y133973D01*
X203561Y133487D01*
X201494Y132106D01*
X201348Y131888D01*
X200078Y132273D01*
Y141599D01*
X200078Y141599D01*
X199768Y143160D01*
X198884Y144483D01*
X198884Y144483D01*
X195193Y148174D01*
X195258Y148500D01*
X194847Y150568D01*
X193675Y152321D01*
X191922Y153493D01*
X189854Y153904D01*
X187786Y153493D01*
X186567Y152678D01*
X185768Y153213D01*
X183700Y153624D01*
X183269Y153538D01*
X182371Y154436D01*
X182404Y154600D01*
X181992Y156668D01*
X180870Y158348D01*
X180993Y158532D01*
X181404Y160600D01*
X180993Y162668D01*
X181941Y163534D01*
X182829Y164127D01*
X184001Y165881D01*
X184322Y167494D01*
X186434Y169606D01*
X186434Y169607D01*
X187318Y170930D01*
X187628Y172490D01*
X187628Y172491D01*
Y183885D01*
X187318Y185445D01*
X186434Y186768D01*
X186434Y186768D01*
X183703Y189499D01*
X183993Y189932D01*
X184404Y192000D01*
X184368Y192182D01*
X185337Y193282D01*
X186660Y194166D01*
X188216Y195722D01*
X189830Y196043D01*
X191583Y197214D01*
X192717Y198910D01*
X193056Y198959D01*
X193727Y198940D01*
D02*
G37*
G36*
X131147Y152733D02*
X130985Y152562D01*
X130840Y152391D01*
X130712Y152220D01*
X130601Y152049D01*
X130507Y151878D01*
X130431Y151707D01*
X130373Y151536D01*
X130331Y151365D01*
X130307Y151194D01*
X130300Y151023D01*
X128023Y153300D01*
X128194Y153307D01*
X128365Y153331D01*
X128536Y153373D01*
X128707Y153431D01*
X128878Y153507D01*
X129049Y153601D01*
X129220Y153712D01*
X129391Y153840D01*
X129562Y153985D01*
X129733Y154148D01*
X131147Y152733D01*
D02*
G37*
G36*
X110343Y151725D02*
X110367Y151554D01*
X110409Y151383D01*
X110468Y151212D01*
X110544Y151041D01*
X110637Y150870D01*
X110748Y150699D01*
X110876Y150527D01*
X111021Y150356D01*
X111184Y150185D01*
X109769Y148771D01*
X109598Y148933D01*
X109427Y149079D01*
X109256Y149207D01*
X109085Y149318D01*
X108914Y149411D01*
X108743Y149487D01*
X108572Y149546D01*
X108401Y149587D01*
X108230Y149612D01*
X108059Y149619D01*
X110336Y151895D01*
X110343Y151725D01*
D02*
G37*
G36*
X78161Y149945D02*
X77998Y149774D01*
X77853Y149603D01*
X77725Y149432D01*
X77614Y149261D01*
X77521Y149090D01*
X77445Y148919D01*
X77386Y148748D01*
X77344Y148577D01*
X77320Y148406D01*
X77313Y148235D01*
X75036Y150512D01*
X75207Y150519D01*
X75378Y150543D01*
X75549Y150585D01*
X75720Y150643D01*
X75891Y150720D01*
X76062Y150813D01*
X76233Y150924D01*
X76404Y151052D01*
X76575Y151197D01*
X76747Y151360D01*
X78161Y149945D01*
D02*
G37*
G36*
X54312Y145993D02*
X54345Y145855D01*
X54396Y145712D01*
X54463Y145564D01*
X54548Y145412D01*
X54650Y145254D01*
X54770Y145091D01*
X55060Y144752D01*
X55231Y144574D01*
X54008Y142969D01*
X53830Y143139D01*
X53488Y143416D01*
X53323Y143524D01*
X53163Y143611D01*
X53007Y143678D01*
X52855Y143724D01*
X52708Y143750D01*
X52564Y143755D01*
X52426Y143740D01*
X54296Y146127D01*
X54312Y145993D01*
D02*
G37*
G36*
X32307Y145806D02*
X32331Y145635D01*
X32373Y145464D01*
X32431Y145293D01*
X32508Y145122D01*
X32601Y144951D01*
X32712Y144780D01*
X32840Y144609D01*
X32985Y144438D01*
X33147Y144267D01*
X31733Y142852D01*
X31562Y143015D01*
X31391Y143160D01*
X31220Y143288D01*
X31049Y143399D01*
X30878Y143492D01*
X30707Y143569D01*
X30536Y143627D01*
X30365Y143669D01*
X30194Y143693D01*
X30023Y143700D01*
X32300Y145977D01*
X32307Y145806D01*
D02*
G37*
G36*
X173471Y140794D02*
X173300Y140787D01*
X173129Y140763D01*
X172958Y140721D01*
X172787Y140662D01*
X172616Y140586D01*
X172445Y140493D01*
X172274Y140382D01*
X172103Y140254D01*
X171932Y140109D01*
X171761Y139946D01*
X170346Y141361D01*
X170509Y141532D01*
X170654Y141703D01*
X170782Y141874D01*
X170893Y142045D01*
X170986Y142216D01*
X171062Y142387D01*
X171121Y142558D01*
X171163Y142729D01*
X171187Y142900D01*
X171194Y143071D01*
X173471Y140794D01*
D02*
G37*
G36*
X186922Y139231D02*
Y93562D01*
X157587Y64228D01*
X156555Y64433D01*
X154117Y63948D01*
X152049Y62566D01*
X150668Y60499D01*
X150183Y58060D01*
X150334Y57298D01*
X149495Y56276D01*
X148653D01*
X147813Y57298D01*
X147965Y58060D01*
X147480Y60499D01*
X146124Y62529D01*
Y99956D01*
X180928Y134760D01*
X180928Y134760D01*
X181812Y136083D01*
X182122Y137644D01*
X182122Y137644D01*
Y142129D01*
X182767Y142659D01*
X183392Y142760D01*
X186922Y139231D01*
D02*
G37*
%LPC*%
G36*
X13200Y303000D02*
X7200D01*
Y291500D01*
X13200D01*
Y303000D01*
D02*
G37*
G36*
X5200D02*
X-800D01*
Y291500D01*
X5200D01*
Y303000D01*
D02*
G37*
G36*
X256737Y170341D02*
X254669Y169930D01*
X252916Y168759D01*
X251745Y167006D01*
X251334Y164937D01*
X251745Y162869D01*
X252916Y161116D01*
X254669Y159945D01*
X256737Y159534D01*
X258806Y159945D01*
X260559Y161116D01*
X261730Y162869D01*
X262141Y164937D01*
X261730Y167006D01*
X260559Y168759D01*
X258806Y169930D01*
X256737Y170341D01*
D02*
G37*
G36*
X20000Y127373D02*
X17561Y126887D01*
X15494Y125506D01*
X14113Y123439D01*
X13628Y121000D01*
X14113Y118561D01*
X15494Y116494D01*
X17561Y115113D01*
X20000Y114628D01*
X22439Y115113D01*
X24506Y116494D01*
X25887Y118561D01*
X26372Y121000D01*
X25887Y123439D01*
X24506Y125506D01*
X22439Y126887D01*
X20000Y127373D01*
D02*
G37*
G36*
X52000Y118372D02*
X49561Y117887D01*
X47494Y116506D01*
X46113Y114439D01*
X45627Y112000D01*
X46113Y109561D01*
X47494Y107494D01*
X49561Y106113D01*
X52000Y105628D01*
X54439Y106113D01*
X56506Y107494D01*
X57887Y109561D01*
X58373Y112000D01*
X57887Y114439D01*
X56506Y116506D01*
X54439Y117887D01*
X52000Y118372D01*
D02*
G37*
G36*
X20000Y107373D02*
X17561Y106887D01*
X15494Y105506D01*
X14113Y103439D01*
X13628Y101000D01*
X14113Y98561D01*
X15494Y96494D01*
X17561Y95113D01*
X20000Y94628D01*
X22439Y95113D01*
X24506Y96494D01*
X25887Y98561D01*
X26372Y101000D01*
X25887Y103439D01*
X24506Y105506D01*
X22439Y106887D01*
X20000Y107373D01*
D02*
G37*
G36*
X35000Y90372D02*
X32561Y89887D01*
X30494Y88506D01*
X29113Y86439D01*
X28628Y84000D01*
X29113Y81561D01*
X30494Y79494D01*
X32561Y78113D01*
X35000Y77628D01*
X37439Y78113D01*
X39506Y79494D01*
X40887Y81561D01*
X41372Y84000D01*
X40887Y86439D01*
X39506Y88506D01*
X37439Y89887D01*
X35000Y90372D01*
D02*
G37*
G36*
X153290Y302093D02*
X145969D01*
Y298593D01*
X146252Y296439D01*
X147084Y294432D01*
X148406Y292709D01*
X150129Y291387D01*
X152136Y290555D01*
X153290Y290403D01*
Y302093D01*
D02*
G37*
%LPD*%
D10*
X152205Y253354D02*
G03*
X156375Y253354I2085J8240D01*
G01*
X171518Y57828D02*
X196000Y82310D01*
X189854Y147745D02*
X196000Y141599D01*
Y82310D02*
Y141599D01*
X203000Y46000D02*
X243000Y86000D01*
X245000Y158128D02*
Y158600D01*
X243000Y156128D02*
X245000Y158128D01*
X243000Y86000D02*
Y156128D01*
X67695Y52154D02*
X81120Y65579D01*
X85580D02*
X174102Y154102D01*
X81120Y65579D02*
X85580D01*
X58846Y52154D02*
X67695D01*
X65086Y81000D02*
X65891Y80195D01*
Y60164D02*
Y80195D01*
Y60164D02*
X66623Y59433D01*
Y57654D02*
Y59433D01*
X51815Y57066D02*
X53934D01*
X58846Y52154D01*
X142045Y101645D02*
X178044Y137644D01*
X142045Y58002D02*
Y101645D01*
X191000Y91873D02*
Y140920D01*
X156956Y57828D02*
X191000Y91873D01*
X104000Y52000D02*
X198400D01*
X98056Y57944D02*
X104000Y52000D01*
X198400D02*
X231000Y84600D01*
X96850Y57944D02*
X98056D01*
X31600Y283400D02*
X108900Y206100D01*
X31600Y283400D02*
Y305000D01*
X57000Y281000D02*
X127854Y210146D01*
X57000Y281000D02*
Y305000D01*
X107800D02*
X108000Y304800D01*
Y259565D02*
X122119Y245446D01*
X108000Y259565D02*
Y304800D01*
X133000Y259000D02*
X142400Y249600D01*
X133000Y304800D02*
X133200Y305000D01*
X133000Y259000D02*
Y304800D01*
X142400Y249600D02*
X190600D01*
X127854Y210146D02*
X146103D01*
X108900Y206100D02*
X143500D01*
X246999Y203003D02*
X253000Y209004D01*
X246999Y184000D02*
Y203003D01*
X240000Y176000D02*
Y203600D01*
X219498Y155498D02*
X240000Y176000D01*
Y203600D02*
X247000Y210600D01*
X230301Y223301D02*
Y241486D01*
X213450Y206450D02*
X230301Y223301D01*
X213450Y199115D02*
Y206450D01*
X56958Y189958D02*
X154136D01*
X14800Y146219D02*
X15297Y146716D01*
Y148297D01*
X56958Y189958D01*
X83000Y59000D02*
X96000Y46000D01*
X203000D01*
X47500Y128500D02*
X115386D01*
X30000Y146000D02*
X47500Y128500D01*
X105401Y178600D02*
X155000D01*
X75013Y148212D02*
X105401Y178600D01*
X89662Y143662D02*
X104000Y158000D01*
X54729Y143662D02*
X89662D01*
X52391Y146000D02*
X54729Y143662D01*
X52000Y146000D02*
X52391D01*
X176502Y154102D02*
X177000Y154600D01*
X174102Y154102D02*
X176502D01*
X159700Y236300D02*
X164500Y241100D01*
X122119Y245446D02*
X198446D01*
X190600Y249600D02*
X202000Y261000D01*
X198446Y245446D02*
X207100Y254100D01*
X164500Y241100D02*
X219278D01*
X233000Y261000D02*
X247000Y247000D01*
X202000Y261000D02*
X233000D01*
X229500Y254100D02*
X241000Y242600D01*
X207100Y254100D02*
X229500D01*
X124271Y158000D02*
X141374Y175103D01*
X104000Y158000D02*
X124271D01*
X141374Y175103D02*
X158645D01*
X165541Y182000D01*
X154136Y189958D02*
X156644Y187450D01*
X253000Y209004D02*
Y249600D01*
X234365Y268235D02*
X253000Y249600D01*
X247000Y210600D02*
Y247000D01*
X233000Y213600D02*
X241000Y221600D01*
Y242600D01*
X233000Y191476D02*
Y213600D01*
Y191476D02*
X233086Y191390D01*
Y187621D02*
Y191390D01*
X231000Y84600D02*
Y154000D01*
X229000Y156000D02*
X231000Y154000D01*
X219498Y149097D02*
Y155498D01*
X219000Y148600D02*
X219498Y149097D01*
X233000Y176000D02*
Y187535D01*
X213000Y148600D02*
Y156000D01*
X233000Y176000D01*
Y187535D02*
X233086Y187621D01*
X148803Y222000D02*
X166156D01*
X143000Y226600D02*
X143703D01*
X144849Y225454D01*
X145349D01*
X148803Y222000D01*
X146048Y231952D02*
X151000Y227000D01*
X213150D02*
X225751Y239601D01*
X151000Y227000D02*
X213150D01*
X140000Y163000D02*
X156400D01*
X128000Y151000D02*
X140000Y163000D01*
X156400D02*
X162540Y169140D01*
X115386Y128500D02*
X121889Y135003D01*
X223059Y189505D02*
X228536D01*
X213450Y199115D02*
X223059Y189505D01*
X145500Y258364D02*
Y273825D01*
Y258364D02*
X149924Y253940D01*
X145500Y273825D02*
X154669Y282994D01*
X156752D01*
X149924Y253940D02*
X150510Y253354D01*
X165541Y182000D02*
X179000D01*
X179008Y167948D02*
X183550Y172490D01*
Y183885D01*
X179985Y187450D02*
X183550Y183885D01*
X156644Y187450D02*
X179985D01*
X149450Y146450D02*
X179000Y176000D01*
X113505Y146450D02*
X149450D01*
X179000Y176000D02*
X179000D01*
X158056Y191544D02*
X177544D01*
X178000Y192000D01*
X143500Y206100D02*
X158056Y191544D01*
X146103Y210146D02*
X158929Y197320D01*
X159269D01*
X160494Y196094D01*
X161198D01*
X145448Y219552D02*
X167950Y197050D01*
X173015D01*
X173115Y197150D01*
X176884D01*
X155000Y178600D02*
X159000Y182600D01*
X162540Y172564D02*
X162576Y172600D01*
X108036Y151918D02*
X113505Y146450D01*
X143399Y232449D02*
X143896Y231952D01*
X146048D01*
X219278Y241100D02*
X222330Y244151D01*
X166156Y222000D02*
X181000Y207157D01*
X143703Y220599D02*
X144750Y219552D01*
X145448D01*
X142000Y220599D02*
X143703D01*
X176884Y197150D02*
X176984Y197050D01*
X183776D01*
X222330Y244151D02*
X227636D01*
X230301Y241486D01*
X121889Y135003D02*
X136445D01*
X136448Y135000D01*
X128000Y97600D02*
X173494Y143094D01*
X128000Y59000D02*
Y97600D01*
X136448Y135000D02*
X146400D01*
X172000Y160600D01*
X176000D01*
X177316Y148758D02*
X178044Y148031D01*
Y137644D02*
Y148031D01*
X182754Y253354D02*
X197635Y268235D01*
X234365D01*
X156375Y253354D02*
X182754D01*
X150510D02*
X152205D01*
X159000Y182600D02*
X159000D01*
X162540Y169140D02*
Y172564D01*
X183776Y197050D02*
X187762Y201035D01*
X181000Y201600D02*
Y207157D01*
X195820Y149770D02*
X196640Y148950D01*
X183700Y148220D02*
X191000Y140920D01*
X189854Y147745D02*
Y148500D01*
D46*
X154290Y303093D02*
D03*
X256790D02*
D03*
Y266094D02*
D03*
X154290D02*
D03*
D47*
X261501Y208100D02*
D03*
Y245100D02*
D03*
D55*
X256000Y92000D02*
D03*
Y72000D02*
D03*
X241000Y62000D02*
D03*
X206000Y92000D02*
D03*
X171000Y82000D02*
D03*
X161000D02*
D03*
X156000Y92000D02*
D03*
X151000Y82000D02*
D03*
X156000Y72000D02*
D03*
X136000D02*
D03*
X56000Y92000D02*
D03*
X41000Y62000D02*
D03*
X21000Y282000D02*
D03*
X26000Y72000D02*
D03*
X16000D02*
D03*
X6000Y272000D02*
D03*
Y72000D02*
D03*
X95000Y311000D02*
D03*
X134000Y219000D02*
D03*
X256737Y164937D02*
D03*
X261000Y141000D02*
D03*
X246999Y184000D02*
D03*
X257223Y174615D02*
D03*
X253500Y198600D02*
D03*
X254771Y189958D02*
D03*
X30000Y146000D02*
D03*
X31326Y136335D02*
D03*
X0Y134000D02*
D03*
X75013Y148212D02*
D03*
X52000Y146000D02*
D03*
X14800Y146219D02*
D03*
X229000Y156000D02*
D03*
X194155Y231934D02*
D03*
X228536Y189505D02*
D03*
X218000Y201000D02*
D03*
X199000D02*
D03*
X179000Y182000D02*
D03*
X179008Y167948D02*
D03*
X179000Y176000D02*
D03*
X179000Y192000D02*
D03*
X143000Y220599D02*
D03*
Y226600D02*
D03*
X162576Y172600D02*
D03*
X97000Y277000D02*
D03*
X119000Y141000D02*
D03*
X176000Y160600D02*
D03*
X177316Y148758D02*
D03*
X177000Y154600D02*
D03*
X141000Y140600D02*
D03*
X108036Y151918D02*
D03*
X161198Y196094D02*
D03*
X128000Y151000D02*
D03*
X159000Y182600D02*
D03*
X187762Y201035D02*
D03*
X181000Y201600D02*
D03*
X143232Y214696D02*
D03*
X235103Y235949D02*
D03*
X225751Y239601D02*
D03*
X60162Y151949D02*
D03*
X38000Y152000D02*
D03*
X143399Y232449D02*
D03*
X206000Y148600D02*
D03*
X213000D02*
D03*
X219000D02*
D03*
X173494Y143094D02*
D03*
X189854Y148500D02*
D03*
X245000Y158600D02*
D03*
X183700Y148220D02*
D03*
D56*
X65329Y58060D02*
D03*
X51815D02*
D03*
X141592D02*
D03*
X156555D02*
D03*
X171518D02*
D03*
X126629D02*
D03*
X111667D02*
D03*
X81741D02*
D03*
X96704D02*
D03*
X15195Y304324D02*
D03*
X38000Y127000D02*
D03*
X159700Y236300D02*
D03*
X241000Y212600D02*
D03*
X140000Y273000D02*
D03*
X227000Y199600D02*
D03*
X207000D02*
D03*
X144000Y169000D02*
D03*
X138000Y200600D02*
D03*
X151858Y184458D02*
D03*
X259282Y226100D02*
D03*
X154413Y169604D02*
D03*
X187000Y265863D02*
D03*
X75000Y277000D02*
D03*
X105947Y135000D02*
D03*
X97000Y139000D02*
D03*
X116000Y114000D02*
D03*
X124167Y129503D02*
D03*
X128096Y119500D02*
D03*
X134167Y129503D02*
D03*
X178985Y259355D02*
D03*
X169000Y259600D02*
D03*
X170000Y235600D02*
D03*
X156752Y282994D02*
D03*
X165389Y214989D02*
D03*
X113253Y82000D02*
D03*
X248000Y58000D02*
D03*
X8000D02*
D03*
X219000Y248600D02*
D03*
X144000Y184100D02*
D03*
X193000Y164600D02*
D03*
X213000D02*
D03*
Y184600D02*
D03*
X193000D02*
D03*
X52000Y112000D02*
D03*
X57000Y134000D02*
D03*
X206000Y127600D02*
D03*
X45000Y84000D02*
D03*
X65086Y81000D02*
D03*
X73000Y87000D02*
D03*
X202000Y112600D02*
D03*
X162260Y96314D02*
D03*
X225500Y112600D02*
D03*
X35000Y84000D02*
D03*
X20000Y101000D02*
D03*
Y111000D02*
D03*
Y121000D02*
D03*
X73000Y123000D02*
D03*
X196640Y148950D02*
D03*
X214000Y112600D02*
D03*
D63*
X6200Y304000D02*
D03*
X31600D02*
D03*
X57000D02*
D03*
X82400D02*
D03*
X107800D02*
D03*
X133200D02*
D03*
D64*
X6876Y304324D02*
X15195D01*
X6200Y305000D02*
X6876Y304324D01*
X82400Y284400D02*
Y305000D01*
X75000Y277000D02*
X82400Y284400D01*
M02*
