G04*
G04 #@! TF.GenerationSoftware,Altium Limited,Altium Designer,20.0.13 (296)*
G04*
G04 Layer_Color=65535*
%FSLAX44Y44*%
%MOMM*%
G71*
G01*
G75*
%ADD10C,0.2000*%
%ADD11C,0.1500*%
%ADD12C,0.0762*%
%ADD13C,0.2540*%
%ADD14C,0.1524*%
%ADD15C,0.1270*%
%ADD16C,0.1016*%
%ADD17C,0.1900*%
G36*
X138400Y274375D02*
X143500D01*
Y275899D01*
X138400D01*
Y274375D01*
D02*
G37*
G36*
Y311975D02*
X143500D01*
Y313499D01*
X138400D01*
Y311975D01*
D02*
G37*
D10*
X164000Y209600D02*
G03*
X164000Y209600I-1000J0D01*
G01*
X16310Y120500D02*
G03*
X16310Y120500I-1000J0D01*
G01*
X260000Y136000D02*
Y156000D01*
X250000Y136000D02*
Y156000D01*
Y136000D02*
X260000D01*
X250000Y156000D02*
X260000D01*
X33000Y152000D02*
X53000D01*
X33000Y142000D02*
X53000D01*
Y152000D01*
X33000Y142000D02*
Y152000D01*
X18000Y131000D02*
Y151000D01*
X28000Y131000D02*
Y151000D01*
X18000D02*
X28000D01*
X18000Y131000D02*
X28000D01*
X6000D02*
Y151000D01*
X16000Y131000D02*
Y151000D01*
X6000D02*
X16000D01*
X6000Y131000D02*
X16000D01*
X126000Y142000D02*
X146000D01*
X126000Y152000D02*
X146000D01*
X126000Y142000D02*
Y152000D01*
X146000Y142000D02*
Y152000D01*
X104000Y142000D02*
X124000D01*
X104000Y152000D02*
X124000D01*
X104000Y142000D02*
Y152000D01*
X124000Y142000D02*
Y152000D01*
X55162Y151949D02*
X75162D01*
X55162Y141949D02*
X75162D01*
Y151949D01*
X55162Y141949D02*
Y151949D01*
X221000Y112600D02*
Y132600D01*
X231000Y112600D02*
Y132600D01*
X221000D02*
X231000D01*
X221000Y112600D02*
X231000D01*
X218000Y216600D02*
Y236600D01*
X228000Y216600D02*
Y236600D01*
X218000D02*
X228000D01*
X218000Y216600D02*
X228000D01*
X206000D02*
Y236600D01*
X216000Y216600D02*
Y236600D01*
X206000D02*
X216000D01*
X206000Y216600D02*
X216000D01*
X221000Y249600D02*
X241000D01*
X221000Y239600D02*
X241000D01*
Y249600D01*
X221000Y239600D02*
Y249600D01*
X117000Y120000D02*
Y140000D01*
X107000Y120000D02*
Y140000D01*
Y120000D02*
X117000D01*
X107000Y140000D02*
X117000D01*
X118833Y130167D02*
X138833D01*
X118833Y140167D02*
X138833D01*
X118833Y130167D02*
Y140167D01*
X138833Y130167D02*
Y140167D01*
X136000Y277600D02*
X156000D01*
X136000Y287600D02*
X156000D01*
X136000Y277600D02*
Y287600D01*
X156000Y277600D02*
Y287600D01*
X136000Y240000D02*
X156000D01*
X136000Y250000D02*
X156000D01*
X136000Y240000D02*
Y250000D01*
X156000Y240000D02*
Y250000D01*
X139000Y193600D02*
X159000D01*
Y183600D02*
Y193600D01*
X139000Y183600D02*
X159000D01*
X139000D02*
Y193600D01*
Y205600D02*
X159000D01*
Y195600D02*
Y205600D01*
X139000Y195600D02*
X159000D01*
X139000D02*
Y205600D01*
Y169600D02*
X159000D01*
Y159600D02*
Y169600D01*
X139000Y159600D02*
X159000D01*
X139000D02*
Y169600D01*
X197000Y112600D02*
Y132600D01*
X207000D01*
Y112600D02*
Y132600D01*
X197000Y112600D02*
X207000D01*
X257000Y159600D02*
Y179600D01*
X247000Y159600D02*
X257000D01*
X247000D02*
Y179600D01*
X257000D01*
X244000Y185600D02*
Y205600D01*
X254000D01*
Y185600D02*
Y205600D01*
X244000Y185600D02*
X254000D01*
X240000Y216600D02*
Y236600D01*
X230000Y216600D02*
X240000D01*
X230000D02*
Y236600D01*
X240000D01*
X209000Y112600D02*
Y132600D01*
X219000D01*
Y112600D02*
Y132600D01*
X209000Y112600D02*
X219000D01*
X204000Y216600D02*
Y236600D01*
X194000Y216600D02*
X204000D01*
X194000D02*
Y236600D01*
X204000D01*
X149000Y103600D02*
Y123600D01*
X159000D01*
Y103600D02*
Y123600D01*
X149000Y103600D02*
X159000D01*
X166000Y94600D02*
X186000D01*
Y84600D02*
Y94600D01*
X166000Y84600D02*
X186000D01*
X166000D02*
Y94600D01*
X30000Y84000D02*
X50000D01*
X30000D02*
Y94000D01*
X50000D01*
Y84000D02*
Y94000D01*
X33000Y139000D02*
X53000D01*
Y129000D02*
Y139000D01*
X33000Y129000D02*
X53000D01*
X33000D02*
Y139000D01*
X164000Y257600D02*
X184000D01*
Y247600D02*
Y257600D01*
X164000Y247600D02*
X184000D01*
X164000D02*
Y257600D01*
Y246600D02*
X184000D01*
Y236600D02*
Y246600D01*
X164000Y236600D02*
X184000D01*
X164000D02*
Y246600D01*
D11*
X145791Y237100D02*
G03*
X145791Y237100I-791J0D01*
G01*
D12*
X146367Y299600D02*
G03*
X146367Y299600I-381J0D01*
G01*
X136395D02*
G03*
X136395Y299600I-381J0D01*
G01*
X146367Y262000D02*
G03*
X146367Y262000I-381J0D01*
G01*
X136395D02*
G03*
X136395Y262000I-381J0D01*
G01*
D13*
X166939Y327990D02*
X243936D01*
X243939Y266390D02*
Y327891D01*
X172557Y266400D02*
Y327901D01*
X238539Y266390D02*
Y327891D01*
X166939Y266489D02*
Y327990D01*
Y266489D02*
X180592D01*
X186439Y272336D01*
X229989Y266390D02*
X243939D01*
X223103Y273276D02*
X229989Y266390D01*
X166939Y266489D02*
X180592D01*
X187985Y273883D01*
X82000Y117000D02*
X92000D01*
Y108359D02*
Y117000D01*
X78000Y98860D02*
Y105139D01*
X82000Y87000D02*
X92000D01*
Y95640D01*
X134000Y93000D02*
Y103000D01*
X125359Y93000D02*
X134000D01*
X115860Y107000D02*
X122139D01*
X104000Y93000D02*
Y103000D01*
Y93000D02*
X112640D01*
X78000Y120000D02*
X88000D01*
X78000D02*
Y128641D01*
X92000Y131861D02*
Y138140D01*
X78000Y150000D02*
X88000D01*
X78000Y141360D02*
Y150000D01*
D14*
X161214Y96314D02*
Y131886D01*
Y96314D02*
X191786D01*
Y131886D01*
X161214D02*
X191786D01*
X158923Y117605D02*
Y134166D01*
X174493D01*
X-770Y195669D02*
Y275734D01*
X77305Y157575D02*
X124270D01*
X31749D02*
X60895D01*
X64730Y301085D02*
Y303625D01*
X67270D01*
Y301085D02*
Y303625D01*
X64730Y301085D02*
X67270D01*
X-770Y300676D02*
Y303625D01*
X132770D01*
Y195669D02*
Y266058D01*
X7730Y157575D02*
X16851D01*
X132770Y300652D02*
Y303625D01*
X136014Y288749D02*
X145986D01*
Y296638D01*
X136014Y302562D02*
Y308927D01*
X137538Y310451D01*
X144462D01*
X145986Y308927D01*
Y302562D02*
Y308927D01*
X136014Y288749D02*
Y296638D01*
Y251149D02*
X145986D01*
Y259038D01*
X136014Y264962D02*
Y271327D01*
X137538Y272851D01*
X144462D01*
X145986Y271327D01*
Y264962D02*
Y271327D01*
X136014Y251149D02*
Y259038D01*
D15*
X168000Y204800D02*
Y209600D01*
Y139600D02*
Y144400D01*
X238000Y204800D02*
Y209600D01*
Y139600D02*
Y144400D01*
X168000Y209600D02*
X172800D01*
X168000Y139600D02*
X172800D01*
X233200Y209600D02*
X238000D01*
X233200Y139600D02*
X238000D01*
X149994Y235878D02*
X179994D01*
X150061Y213305D02*
X180061D01*
X31500Y126500D02*
X48500D01*
X31500Y95500D02*
X48500D01*
X31500D02*
Y96500D01*
X48500Y95500D02*
Y96500D01*
Y125500D02*
Y126500D01*
X31500Y125500D02*
Y126500D01*
D16*
X266499Y234602D02*
X276500D01*
Y218600D02*
Y234602D01*
X266499Y218600D02*
X276500D01*
X266000Y214650D02*
Y226600D01*
Y238552D01*
X247500Y245529D02*
Y246601D01*
Y235151D02*
Y235430D01*
Y217747D02*
Y218052D01*
Y206600D02*
Y207648D01*
Y206600D02*
X253952D01*
X247500Y246601D02*
X253952D01*
D17*
X214329Y68398D02*
X219304D01*
X216590Y64780D01*
X217947D01*
X218852Y64327D01*
X219304Y63875D01*
X219756Y62518D01*
Y61614D01*
X219304Y60257D01*
X218399Y59352D01*
X217042Y58900D01*
X215685D01*
X214329Y59352D01*
X213876Y59805D01*
X213424Y60709D01*
X201590Y59805D02*
X201138Y59352D01*
X201590Y58900D01*
X202042Y59352D01*
X201590Y59805D01*
X185459Y66589D02*
X186364Y67041D01*
X187721Y68398D01*
Y58900D01*
X167972Y68398D02*
X171590Y58900D01*
X175208Y68398D02*
X171590Y58900D01*
X152520D02*
X160661D01*
X140912Y65232D02*
X140007Y64780D01*
X139102Y63875D01*
X138650Y62518D01*
Y61614D01*
X139102Y60257D01*
X140007Y59352D01*
X140912Y58900D01*
X142268D01*
X143173Y59352D01*
X144078Y60257D01*
X144530Y61614D01*
Y62518D01*
X144078Y63875D01*
X143173Y64780D01*
X142268Y65232D01*
X140912D01*
X129304Y63875D02*
X128399Y64780D01*
X127495Y65232D01*
X126138D01*
X125233Y64780D01*
X124329Y63875D01*
X123876Y62518D01*
Y61614D01*
X124329Y60257D01*
X125233Y59352D01*
X126138Y58900D01*
X127495D01*
X128399Y59352D01*
X129304Y60257D01*
X111138Y68398D02*
X111590Y67946D01*
X112042Y68398D01*
X111590Y68850D01*
X111138Y68398D01*
X111590Y65232D02*
Y58900D01*
X93876Y65798D02*
Y56300D01*
Y64441D02*
X94781Y65346D01*
X95685Y65798D01*
X97042D01*
X97947Y65346D01*
X98851Y64441D01*
X99304Y63084D01*
Y62180D01*
X98851Y60823D01*
X97947Y59918D01*
X97042Y59466D01*
X95685D01*
X94781Y59918D01*
X93876Y60823D01*
X84756Y67041D02*
X83851Y67946D01*
X82495Y68398D01*
X80685D01*
X79329Y67946D01*
X78424Y67041D01*
Y66136D01*
X78876Y65232D01*
X79329Y64780D01*
X80233Y64327D01*
X82947Y63423D01*
X83851Y62970D01*
X84304Y62518D01*
X84756Y61614D01*
Y60257D01*
X83851Y59352D01*
X82495Y58900D01*
X80685D01*
X79329Y59352D01*
X78424Y60257D01*
X63424Y68398D02*
Y58900D01*
Y68398D02*
X66590D01*
X67947Y67946D01*
X68851Y67041D01*
X69304Y66136D01*
X69756Y64780D01*
Y62518D01*
X69304Y61161D01*
X68851Y60257D01*
X67947Y59352D01*
X66590Y58900D01*
X63424D01*
X47519D02*
X55661D01*
X33424Y68398D02*
Y58900D01*
X39756Y68398D02*
Y58900D01*
X33424Y63875D02*
X39756D01*
X18424Y68398D02*
Y58900D01*
Y68398D02*
X24756Y58900D01*
Y68398D02*
Y58900D01*
X3876Y68398D02*
Y58900D01*
X9304D01*
M02*
