G04*
G04 #@! TF.GenerationSoftware,Altium Limited,Altium Designer,20.0.13 (296)*
G04*
G04 Layer_Color=16711935*
%FSLAX44Y44*%
%MOMM*%
G71*
G01*
G75*
%ADD46O,1.2500X2.1500*%
%ADD47R,1.1999X1.0000*%
%ADD63R,1.0000X2.1000*%
G36*
X18712Y55505D02*
X18119D01*
Y55387D01*
X17644D01*
Y55268D01*
X17169D01*
Y55149D01*
X16932D01*
Y55031D01*
X16575D01*
Y54912D01*
X16219D01*
Y54793D01*
X15982D01*
Y54675D01*
X15626D01*
Y54556D01*
X15388D01*
Y54437D01*
X15151D01*
Y54318D01*
X14913D01*
Y54200D01*
X14676D01*
Y54081D01*
X14439D01*
Y53962D01*
X14201D01*
Y53843D01*
X13964D01*
Y53725D01*
X13726D01*
Y53606D01*
X13489D01*
Y53487D01*
X13370D01*
Y53369D01*
X13133D01*
Y53250D01*
X12895D01*
Y53131D01*
X12658D01*
Y53012D01*
X12539D01*
Y52894D01*
X12302D01*
Y52775D01*
X12064D01*
Y52656D01*
X11946D01*
Y52538D01*
X11708D01*
Y52419D01*
X11589D01*
Y52300D01*
X11471D01*
Y52182D01*
X11233D01*
Y52063D01*
X11114D01*
Y51944D01*
X10996D01*
Y51825D01*
X10758D01*
Y51707D01*
X10640D01*
Y51588D01*
X10521D01*
Y51469D01*
X10402D01*
Y51350D01*
X10283D01*
Y51232D01*
X10046D01*
Y51113D01*
X9927D01*
Y50994D01*
X9809D01*
Y50876D01*
X9690D01*
Y50757D01*
X9571D01*
Y50638D01*
X9453D01*
Y50519D01*
X9334D01*
Y50401D01*
X9215D01*
Y50282D01*
X9096D01*
Y50163D01*
X8978D01*
Y50045D01*
X8859D01*
Y49926D01*
X8740D01*
Y49807D01*
X8622D01*
Y49689D01*
X8503D01*
Y49570D01*
Y49451D01*
X8384D01*
Y49332D01*
X8265D01*
Y49214D01*
X8147D01*
Y49095D01*
Y48976D01*
X8028D01*
Y48857D01*
X7909D01*
Y48739D01*
X7791D01*
Y48620D01*
Y48501D01*
X7672D01*
Y48383D01*
X7553D01*
Y48264D01*
Y48145D01*
X7434D01*
Y48026D01*
Y47908D01*
X7316D01*
Y47789D01*
Y47670D01*
X7197D01*
Y47552D01*
Y47433D01*
X7078D01*
Y47314D01*
X6959D01*
Y47196D01*
Y47077D01*
X6841D01*
Y46958D01*
X6722D01*
Y46839D01*
Y46721D01*
X6603D01*
Y46602D01*
Y46483D01*
X6485D01*
Y46364D01*
X6366D01*
Y46246D01*
Y46127D01*
X6247D01*
Y46008D01*
X6129D01*
Y45890D01*
Y45771D01*
X6010D01*
Y45652D01*
Y45533D01*
X5891D01*
Y45415D01*
Y45296D01*
X5772D01*
Y45177D01*
X5654D01*
Y45059D01*
Y44940D01*
X5535D01*
Y44821D01*
Y44703D01*
X5416D01*
Y44584D01*
Y44465D01*
X5298D01*
Y44346D01*
Y44228D01*
X5179D01*
Y44109D01*
Y43990D01*
X5060D01*
Y43871D01*
Y43753D01*
X4941D01*
Y43634D01*
Y43515D01*
X4823D01*
Y43397D01*
Y43278D01*
X4704D01*
Y43159D01*
Y43040D01*
X4585D01*
Y42922D01*
Y42803D01*
Y42684D01*
Y42566D01*
X4466D01*
Y42447D01*
Y42328D01*
Y42210D01*
Y42091D01*
Y41972D01*
Y41853D01*
X4348D01*
Y41735D01*
Y41616D01*
Y41497D01*
Y41378D01*
Y41260D01*
Y41141D01*
Y41022D01*
X4229D01*
Y40904D01*
Y40785D01*
Y40666D01*
Y40547D01*
Y40429D01*
Y40310D01*
Y40191D01*
Y40073D01*
X4110D01*
Y39954D01*
Y39835D01*
Y39716D01*
Y39598D01*
Y39479D01*
Y39360D01*
Y39242D01*
Y39123D01*
Y39004D01*
Y38885D01*
Y38767D01*
Y38648D01*
X3992D01*
Y38529D01*
Y38411D01*
Y38292D01*
Y38173D01*
Y38054D01*
Y37936D01*
Y37817D01*
Y37698D01*
Y37580D01*
Y37461D01*
Y37342D01*
Y37223D01*
Y37105D01*
Y36986D01*
Y36867D01*
Y36749D01*
Y36630D01*
Y36511D01*
Y36393D01*
Y36274D01*
Y36155D01*
Y36036D01*
Y35918D01*
Y35799D01*
Y35680D01*
X4110D01*
Y35561D01*
Y35443D01*
Y35324D01*
Y35205D01*
Y35087D01*
Y34968D01*
X4229D01*
Y34849D01*
Y34730D01*
Y34612D01*
Y34493D01*
Y34374D01*
X4348D01*
Y34256D01*
Y34137D01*
Y34018D01*
Y33899D01*
X4466D01*
Y33781D01*
Y33662D01*
Y33543D01*
Y33425D01*
X4585D01*
Y33306D01*
Y33187D01*
Y33068D01*
X4704D01*
Y32950D01*
Y32831D01*
Y32712D01*
X4823D01*
Y32594D01*
Y32475D01*
Y32356D01*
X4941D01*
Y32237D01*
Y32119D01*
X5060D01*
Y32000D01*
Y31881D01*
Y31763D01*
X5179D01*
Y31644D01*
Y31525D01*
Y31406D01*
X5298D01*
Y31288D01*
Y31169D01*
X5416D01*
Y31050D01*
Y30932D01*
Y30813D01*
X5535D01*
Y30694D01*
Y30575D01*
X5654D01*
Y30457D01*
Y30338D01*
X5772D01*
Y30219D01*
Y30101D01*
X5891D01*
Y29982D01*
Y29863D01*
X6010D01*
Y29744D01*
Y29626D01*
X6129D01*
Y29507D01*
Y29388D01*
X6247D01*
Y29270D01*
Y29151D01*
X6366D01*
Y29032D01*
Y28913D01*
X6485D01*
Y28795D01*
Y28676D01*
X6603D01*
Y28557D01*
Y28439D01*
X6722D01*
Y28320D01*
Y28201D01*
X6841D01*
Y28082D01*
Y27964D01*
X6959D01*
Y27845D01*
Y27726D01*
X7078D01*
Y27608D01*
Y27489D01*
X7197D01*
Y27370D01*
Y27251D01*
X7316D01*
Y27133D01*
Y27014D01*
X7434D01*
Y26895D01*
X7553D01*
Y26777D01*
Y26658D01*
X7672D01*
Y26539D01*
X7791D01*
Y26420D01*
X7909D01*
Y26302D01*
Y26183D01*
X8028D01*
Y26064D01*
X8147D01*
Y25946D01*
X8265D01*
Y25827D01*
X8384D01*
Y25708D01*
X8503D01*
Y25589D01*
X8622D01*
Y25471D01*
X8740D01*
Y25352D01*
X8859D01*
Y25233D01*
X8978D01*
Y25115D01*
X9096D01*
Y24996D01*
X9215D01*
Y24877D01*
X9334D01*
Y24758D01*
X9453D01*
Y24640D01*
X9571D01*
Y24521D01*
X9690D01*
Y24402D01*
X9809D01*
Y24284D01*
X9927D01*
Y24165D01*
X10046D01*
Y24046D01*
X10165D01*
Y23927D01*
X10283D01*
Y23809D01*
X10402D01*
Y23690D01*
X10521D01*
Y23571D01*
X10758D01*
Y23453D01*
X10877D01*
Y23334D01*
X10996D01*
Y23215D01*
X11114D01*
Y23096D01*
X11233D01*
Y22978D01*
X11352D01*
Y22859D01*
X11589D01*
Y22740D01*
X11708D01*
Y22622D01*
X11827D01*
Y22503D01*
X12064D01*
Y22384D01*
X12183D01*
Y22265D01*
X12420D01*
Y22147D01*
X12539D01*
Y22028D01*
X12777D01*
Y21909D01*
X12895D01*
Y21791D01*
X13014D01*
Y21672D01*
X13133D01*
Y21553D01*
X13251D01*
Y21434D01*
X13489D01*
Y21316D01*
X13607D01*
Y21197D01*
X13726D01*
Y21078D01*
X13845D01*
Y20960D01*
X13964D01*
Y20841D01*
X14082D01*
Y20722D01*
X14320D01*
Y20603D01*
X14439D01*
Y20485D01*
X14557D01*
Y20366D01*
X14676D01*
Y20247D01*
X14913D01*
Y20129D01*
X15032D01*
Y20010D01*
X15151D01*
Y19891D01*
X15270D01*
Y19772D01*
X15388D01*
Y19654D01*
X15626D01*
Y19535D01*
X15744D01*
Y19416D01*
X15863D01*
Y19298D01*
X16101D01*
Y19179D01*
X16219D01*
Y19060D01*
X16338D01*
Y18941D01*
X16457D01*
Y18823D01*
X16575D01*
Y18704D01*
X16813D01*
Y18585D01*
X16932D01*
Y18467D01*
X17050D01*
Y18348D01*
X17169D01*
Y18229D01*
X17288D01*
Y18110D01*
X17406D01*
Y17992D01*
X17644D01*
Y17873D01*
X17763D01*
Y17754D01*
X17881D01*
Y17636D01*
X18000D01*
Y17517D01*
X18119D01*
Y17398D01*
X18356D01*
Y17279D01*
X18475D01*
Y17161D01*
X18594D01*
Y17042D01*
X18712D01*
Y16923D01*
X18831D01*
Y16805D01*
X19068D01*
Y16686D01*
X19187D01*
Y16567D01*
X19306D01*
Y16448D01*
X19543D01*
Y16330D01*
X19662D01*
Y16211D01*
X19781D01*
Y16092D01*
X19899D01*
Y15974D01*
X20018D01*
Y15855D01*
X20137D01*
Y15736D01*
X20374D01*
Y15617D01*
X20493D01*
Y15499D01*
X20612D01*
Y15380D01*
X20730D01*
Y15261D01*
X20849D01*
Y15143D01*
X21087D01*
Y15024D01*
X21205D01*
Y14905D01*
X21324D01*
Y14786D01*
X21443D01*
Y14668D01*
X21680D01*
Y14549D01*
X21799D01*
Y14430D01*
X21918D01*
Y14312D01*
X22036D01*
Y14193D01*
X22274D01*
Y14074D01*
X22392D01*
Y13955D01*
X22511D01*
Y13837D01*
X22630D01*
Y13718D01*
X22867D01*
Y13599D01*
X22986D01*
Y13481D01*
X23105D01*
Y13362D01*
X23223D01*
Y13243D01*
X23342D01*
Y13124D01*
X23461D01*
Y13006D01*
X23698D01*
Y12887D01*
X23817D01*
Y12768D01*
X23936D01*
Y12650D01*
X24054D01*
Y12531D01*
X24173D01*
Y12412D01*
X24411D01*
Y12293D01*
X24529D01*
Y12175D01*
X24648D01*
Y12056D01*
X24767D01*
Y11937D01*
X24885D01*
Y11819D01*
X25123D01*
Y11700D01*
X25242D01*
Y11581D01*
X25479D01*
Y11462D01*
X25598D01*
Y11344D01*
X25716D01*
Y11225D01*
X25954D01*
Y11106D01*
X26073D01*
Y10988D01*
X26191D01*
Y10869D01*
X26429D01*
Y10750D01*
X26547D01*
Y10631D01*
X26666D01*
Y10513D01*
X26904D01*
Y10394D01*
X27022D01*
Y10275D01*
X27260D01*
Y10157D01*
X27497D01*
Y10038D01*
X27616D01*
Y9919D01*
X27853D01*
Y9800D01*
X28091D01*
Y9682D01*
X28328D01*
Y9563D01*
X28566D01*
Y9444D01*
X28803D01*
Y9326D01*
X29040D01*
Y9207D01*
X29397D01*
Y9088D01*
X31177D01*
Y9207D01*
X31533D01*
Y9326D01*
X31771D01*
Y9444D01*
X31890D01*
Y9563D01*
X32127D01*
Y9682D01*
X32246D01*
Y9800D01*
X32364D01*
Y9919D01*
X32483D01*
Y10038D01*
X32602D01*
Y10157D01*
X32721D01*
Y10275D01*
X32839D01*
Y10394D01*
X32958D01*
Y10513D01*
X33077D01*
Y10631D01*
Y10750D01*
X33195D01*
Y10869D01*
X33314D01*
Y10988D01*
X33433D01*
Y11106D01*
X33552D01*
Y11225D01*
Y11344D01*
X33670D01*
Y11462D01*
X33789D01*
Y11581D01*
X33908D01*
Y11700D01*
X34026D01*
Y11819D01*
Y11937D01*
X34145D01*
Y12056D01*
X34264D01*
Y12175D01*
X34383D01*
Y12293D01*
X34501D01*
Y12412D01*
Y12531D01*
X34620D01*
Y12650D01*
X34739D01*
Y12768D01*
X34857D01*
Y12887D01*
X34976D01*
Y13006D01*
X35095D01*
Y13124D01*
Y13243D01*
X35214D01*
Y13362D01*
X35332D01*
Y13481D01*
X35451D01*
Y13599D01*
Y13718D01*
X35570D01*
Y13837D01*
X35688D01*
Y13955D01*
Y14074D01*
X35807D01*
Y14193D01*
X35926D01*
Y14312D01*
Y14430D01*
X36045D01*
Y14549D01*
X36163D01*
Y14668D01*
Y14786D01*
X36282D01*
Y14905D01*
X36401D01*
Y15024D01*
Y15143D01*
X36519D01*
Y15261D01*
X36638D01*
Y15380D01*
Y15499D01*
X36757D01*
Y15617D01*
X36876D01*
Y15736D01*
Y15855D01*
X36994D01*
Y15974D01*
X37113D01*
Y16092D01*
Y16211D01*
X37232D01*
Y16330D01*
X37350D01*
Y16448D01*
Y16567D01*
X37469D01*
Y16686D01*
X37588D01*
Y16805D01*
Y16923D01*
X37707D01*
Y17042D01*
X37825D01*
Y17161D01*
Y17279D01*
X37944D01*
Y17398D01*
X38063D01*
Y17517D01*
X38182D01*
Y17636D01*
Y17754D01*
X38300D01*
Y17873D01*
X38894D01*
Y17754D01*
X39487D01*
Y17636D01*
X41624D01*
Y17754D01*
X42218D01*
Y17873D01*
X42574D01*
Y17992D01*
X42930D01*
Y18110D01*
X43168D01*
Y18229D01*
X43405D01*
Y18348D01*
X43642D01*
Y18467D01*
X43761D01*
Y18585D01*
X43998D01*
Y18704D01*
X44117D01*
Y18823D01*
X44355D01*
Y18941D01*
X44473D01*
Y19060D01*
X44592D01*
Y19179D01*
X44711D01*
Y19298D01*
X44830D01*
Y19416D01*
X44948D01*
Y19535D01*
X45067D01*
Y19654D01*
X45186D01*
Y19772D01*
Y19891D01*
X45304D01*
Y20010D01*
X45423D01*
Y20129D01*
X45542D01*
Y20247D01*
Y20366D01*
X45661D01*
Y20485D01*
Y20603D01*
X45779D01*
Y20722D01*
Y20841D01*
X45898D01*
Y20960D01*
Y21078D01*
X46017D01*
Y21197D01*
Y21316D01*
Y21434D01*
Y21553D01*
X46135D01*
Y21672D01*
Y21791D01*
Y21909D01*
Y22028D01*
X46254D01*
Y22147D01*
Y22265D01*
Y22384D01*
Y22503D01*
Y22622D01*
Y22740D01*
Y22859D01*
Y22978D01*
Y23096D01*
Y23215D01*
Y23334D01*
Y23453D01*
Y23571D01*
Y23690D01*
X46135D01*
Y23809D01*
Y23927D01*
Y24046D01*
X46017D01*
Y24165D01*
Y24284D01*
Y24402D01*
Y24521D01*
Y24640D01*
X46135D01*
Y24758D01*
Y24877D01*
Y24996D01*
X46254D01*
Y25115D01*
Y25233D01*
X46373D01*
Y25352D01*
Y25471D01*
Y25589D01*
X46491D01*
Y25708D01*
Y25827D01*
Y25946D01*
X46610D01*
Y26064D01*
Y26183D01*
X46729D01*
Y26302D01*
Y26420D01*
Y26539D01*
X46848D01*
Y26658D01*
Y26777D01*
Y26895D01*
X46966D01*
Y27014D01*
Y27133D01*
X47085D01*
Y27251D01*
X48391D01*
Y27370D01*
X48628D01*
Y27489D01*
X48866D01*
Y27608D01*
X48984D01*
Y27726D01*
Y27845D01*
X49103D01*
Y27964D01*
X49222D01*
Y28082D01*
Y28201D01*
Y28320D01*
Y28439D01*
Y28557D01*
Y28676D01*
Y28795D01*
Y28913D01*
Y29032D01*
X49103D01*
Y29151D01*
Y29270D01*
X48984D01*
Y29388D01*
Y29507D01*
X48866D01*
Y29626D01*
X48747D01*
Y29744D01*
X48628D01*
Y29863D01*
Y29982D01*
X48510D01*
Y30101D01*
X48391D01*
Y30219D01*
X48272D01*
Y30338D01*
X48035D01*
Y30457D01*
X47916D01*
Y30575D01*
X47679D01*
Y30694D01*
X47441D01*
Y30813D01*
X47085D01*
Y30932D01*
X46135D01*
Y30813D01*
X45779D01*
Y30694D01*
X45542D01*
Y30575D01*
X45304D01*
Y30457D01*
X45186D01*
Y30338D01*
X45067D01*
Y30219D01*
X44948D01*
Y30101D01*
X44830D01*
Y29982D01*
X44711D01*
Y29863D01*
Y29744D01*
X44592D01*
Y29626D01*
Y29507D01*
X44473D01*
Y29388D01*
Y29270D01*
Y29151D01*
X44592D01*
Y29032D01*
Y28913D01*
Y28795D01*
X44711D01*
Y28676D01*
X44830D01*
Y28557D01*
Y28439D01*
X44948D01*
Y28320D01*
X45067D01*
Y28201D01*
X45186D01*
Y28082D01*
X45423D01*
Y27964D01*
Y27845D01*
Y27726D01*
Y27608D01*
Y27489D01*
X45304D01*
Y27370D01*
Y27251D01*
Y27133D01*
X45186D01*
Y27014D01*
Y26895D01*
Y26777D01*
X45067D01*
Y26658D01*
Y26539D01*
Y26420D01*
X44948D01*
Y26302D01*
Y26183D01*
Y26064D01*
X44830D01*
Y25946D01*
X44592D01*
Y26064D01*
X44236D01*
Y26183D01*
X43998D01*
Y26302D01*
X43761D01*
Y26420D01*
X43524D01*
Y26539D01*
X43286D01*
Y26658D01*
X42930D01*
Y26777D01*
X42811D01*
Y26895D01*
Y27014D01*
X42930D01*
Y27133D01*
Y27251D01*
Y27370D01*
Y27489D01*
Y27608D01*
Y27726D01*
Y27845D01*
Y27964D01*
Y28082D01*
X43049D01*
Y28201D01*
Y28320D01*
Y28439D01*
Y28557D01*
Y28676D01*
Y28795D01*
Y28913D01*
Y29032D01*
Y29151D01*
Y29270D01*
Y29388D01*
Y29507D01*
Y29626D01*
Y29744D01*
Y29863D01*
Y29982D01*
Y30101D01*
X43168D01*
Y30219D01*
Y30338D01*
Y30457D01*
Y30575D01*
Y30694D01*
Y30813D01*
Y30932D01*
Y31050D01*
Y31169D01*
Y31288D01*
Y31406D01*
Y31525D01*
Y31644D01*
Y31763D01*
Y31881D01*
Y32000D01*
Y32119D01*
Y32237D01*
Y32356D01*
Y32475D01*
Y32594D01*
Y32712D01*
Y32831D01*
Y32950D01*
Y33068D01*
Y33187D01*
Y33306D01*
Y33425D01*
Y33543D01*
Y33662D01*
Y33781D01*
Y33899D01*
Y34018D01*
Y34137D01*
Y34256D01*
Y34374D01*
Y34493D01*
Y34612D01*
Y34730D01*
Y34849D01*
Y34968D01*
X43049D01*
Y35087D01*
Y35205D01*
Y35324D01*
Y35443D01*
Y35561D01*
Y35680D01*
Y35799D01*
Y35918D01*
Y36036D01*
Y36155D01*
X43168D01*
Y36274D01*
Y36393D01*
X43286D01*
Y36511D01*
Y36630D01*
X43405D01*
Y36749D01*
Y36867D01*
X43524D01*
Y36986D01*
X43642D01*
Y37105D01*
Y37223D01*
X43761D01*
Y37342D01*
Y37461D01*
Y37580D01*
X43880D01*
Y37698D01*
X43998D01*
Y37817D01*
Y37936D01*
Y38054D01*
X44117D01*
Y38173D01*
Y38292D01*
X44236D01*
Y38411D01*
Y38529D01*
X44355D01*
Y38648D01*
Y38767D01*
Y38885D01*
X44473D01*
Y39004D01*
Y39123D01*
X44592D01*
Y39242D01*
Y39360D01*
Y39479D01*
X44711D01*
Y39598D01*
Y39716D01*
Y39835D01*
X44830D01*
Y39954D01*
Y40073D01*
Y40191D01*
X44948D01*
Y40310D01*
Y40429D01*
Y40547D01*
X45067D01*
Y40666D01*
Y40785D01*
Y40904D01*
X45186D01*
Y41022D01*
Y41141D01*
Y41260D01*
X45304D01*
Y41378D01*
Y41497D01*
Y41616D01*
Y41735D01*
X45423D01*
Y41853D01*
Y41972D01*
Y42091D01*
Y42210D01*
X45542D01*
Y42328D01*
Y42447D01*
Y42566D01*
Y42684D01*
Y42803D01*
X45661D01*
Y42922D01*
Y43040D01*
Y43159D01*
Y43278D01*
X45779D01*
Y43397D01*
Y43515D01*
Y43634D01*
Y43753D01*
Y43871D01*
Y43990D01*
X45898D01*
Y44109D01*
Y44228D01*
Y44346D01*
Y44465D01*
Y44584D01*
Y44703D01*
X46017D01*
Y44821D01*
Y44940D01*
Y45059D01*
Y45177D01*
Y45296D01*
Y45415D01*
Y45533D01*
X42099D01*
Y45415D01*
X39843D01*
Y45533D01*
X39250D01*
Y45652D01*
X38775D01*
Y45771D01*
X38538D01*
Y45890D01*
X38182D01*
Y46008D01*
X37944D01*
Y46127D01*
X37825D01*
Y46246D01*
X37588D01*
Y46364D01*
X37469D01*
Y46483D01*
X37350D01*
Y46602D01*
X37232D01*
Y46721D01*
Y46839D01*
X37113D01*
Y46958D01*
X36994D01*
Y47077D01*
X36876D01*
Y47196D01*
X36757D01*
Y47314D01*
X36638D01*
Y47433D01*
Y47552D01*
X36519D01*
Y47670D01*
X36401D01*
Y47789D01*
X36282D01*
Y47908D01*
X36163D01*
Y48026D01*
X36045D01*
Y48145D01*
X35926D01*
Y48264D01*
Y48383D01*
X35807D01*
Y48501D01*
X35688D01*
Y48620D01*
X35570D01*
Y48739D01*
X35451D01*
Y48857D01*
X35332D01*
Y48976D01*
X35214D01*
Y49095D01*
X35095D01*
Y49214D01*
X34976D01*
Y49332D01*
X34857D01*
Y49451D01*
X34739D01*
Y49570D01*
X34620D01*
Y49689D01*
X34501D01*
Y49807D01*
X34383D01*
Y49926D01*
X34264D01*
Y50045D01*
X34145D01*
Y50163D01*
X34026D01*
Y50282D01*
X33908D01*
Y50401D01*
X33789D01*
Y50519D01*
X33552D01*
Y50638D01*
X33433D01*
Y50757D01*
X33314D01*
Y50876D01*
X33077D01*
Y50994D01*
X32958D01*
Y51113D01*
X32839D01*
Y51232D01*
X32721D01*
Y51350D01*
X32483D01*
Y51469D01*
X32364D01*
Y51588D01*
X32127D01*
Y51707D01*
X32008D01*
Y51825D01*
X31771D01*
Y51944D01*
X31652D01*
Y52063D01*
X31415D01*
Y52182D01*
X31177D01*
Y52300D01*
X31059D01*
Y52419D01*
X30821D01*
Y52538D01*
X30584D01*
Y52656D01*
X30346D01*
Y52775D01*
X30109D01*
Y52894D01*
X29871D01*
Y53012D01*
X29634D01*
Y53131D01*
X29278D01*
Y53250D01*
X29040D01*
Y53369D01*
X28803D01*
Y53487D01*
X28447D01*
Y53606D01*
X28209D01*
Y53725D01*
X27853D01*
Y53843D01*
X27497D01*
Y53962D01*
X27141D01*
Y54081D01*
X26785D01*
Y54200D01*
X26547D01*
Y54318D01*
X26073D01*
Y54437D01*
X25716D01*
Y54556D01*
X25360D01*
Y54675D01*
X25004D01*
Y54793D01*
X24529D01*
Y54912D01*
X24173D01*
Y55031D01*
X23698D01*
Y55149D01*
X23342D01*
Y55268D01*
X22867D01*
Y55387D01*
X22274D01*
Y55505D01*
X21561D01*
Y55624D01*
X18712D01*
Y55505D01*
D02*
G37*
%LPC*%
G36*
X19543Y54200D02*
X20968D01*
Y54081D01*
X21680D01*
Y53962D01*
X22274D01*
Y53843D01*
X22749D01*
Y53725D01*
X23223D01*
Y53606D01*
X23698D01*
Y53487D01*
X24173D01*
Y53369D01*
X24529D01*
Y53250D01*
X25004D01*
Y53131D01*
X25479D01*
Y53012D01*
X25835D01*
Y52894D01*
X26191D01*
Y52775D01*
X26547D01*
Y52656D01*
X26904D01*
Y52538D01*
X27260D01*
Y52419D01*
X27497D01*
Y52300D01*
X27853D01*
Y52182D01*
X28091D01*
Y52063D01*
X28447D01*
Y51944D01*
X28684D01*
Y51825D01*
X28922D01*
Y51707D01*
X29159D01*
Y51588D01*
X29515D01*
Y51469D01*
X29753D01*
Y51350D01*
X29871D01*
Y51232D01*
X30109D01*
Y51113D01*
X30346D01*
Y50994D01*
X30584D01*
Y50876D01*
X30703D01*
Y50757D01*
X30940D01*
Y50638D01*
X31177D01*
Y50519D01*
X31296D01*
Y50401D01*
X31533D01*
Y50282D01*
X31652D01*
Y50163D01*
X31890D01*
Y50045D01*
X32008D01*
Y49926D01*
X32127D01*
Y49807D01*
X32364D01*
Y49689D01*
X32483D01*
Y49570D01*
X32602D01*
Y49451D01*
X32721D01*
Y49332D01*
X32958D01*
Y49214D01*
X33077D01*
Y49095D01*
X33195D01*
Y48976D01*
X33314D01*
Y48857D01*
X33433D01*
Y48739D01*
X33552D01*
Y48620D01*
X33670D01*
Y48501D01*
X33789D01*
Y48383D01*
X33908D01*
Y48264D01*
X34026D01*
Y48145D01*
X34145D01*
Y48026D01*
X34264D01*
Y47908D01*
X34383D01*
Y47789D01*
X34501D01*
Y47670D01*
X34620D01*
Y47552D01*
X34739D01*
Y47433D01*
X34857D01*
Y47314D01*
X34976D01*
Y47196D01*
X35095D01*
Y47077D01*
X35214D01*
Y46958D01*
X35332D01*
Y46839D01*
X35451D01*
Y46721D01*
Y46602D01*
X35570D01*
Y46483D01*
X35688D01*
Y46364D01*
X35807D01*
Y46246D01*
X35926D01*
Y46127D01*
Y46008D01*
X36045D01*
Y45890D01*
X36163D01*
Y45771D01*
X36282D01*
Y45652D01*
Y45533D01*
X36401D01*
Y45415D01*
X36638D01*
Y45296D01*
X36757D01*
Y45177D01*
X36876D01*
Y45059D01*
X36994D01*
Y44940D01*
Y44821D01*
X37232D01*
Y44703D01*
X37469D01*
Y44584D01*
X37825D01*
Y44465D01*
X38063D01*
Y44346D01*
X38538D01*
Y44228D01*
X39012D01*
Y44109D01*
X39843D01*
Y43990D01*
X42455D01*
Y44109D01*
X43998D01*
Y44228D01*
X44236D01*
Y44109D01*
Y43990D01*
Y43871D01*
Y43753D01*
Y43634D01*
Y43515D01*
Y43397D01*
Y43278D01*
X44117D01*
Y43159D01*
Y43040D01*
Y42922D01*
Y42803D01*
Y42684D01*
Y42566D01*
X43998D01*
Y42447D01*
Y42328D01*
Y42210D01*
Y42091D01*
Y41972D01*
X43880D01*
Y41853D01*
Y41735D01*
Y41616D01*
Y41497D01*
X43761D01*
Y41378D01*
Y41260D01*
Y41141D01*
X43642D01*
Y41022D01*
Y40904D01*
Y40785D01*
Y40666D01*
X43524D01*
Y40547D01*
Y40429D01*
Y40310D01*
X43405D01*
Y40191D01*
Y40073D01*
X43286D01*
Y39954D01*
Y39835D01*
X43168D01*
Y39716D01*
Y39598D01*
Y39479D01*
X43049D01*
Y39360D01*
Y39242D01*
X42930D01*
Y39123D01*
Y39004D01*
X42811D01*
Y38885D01*
Y38767D01*
Y38648D01*
X42693D01*
Y38529D01*
Y38411D01*
X42574D01*
Y38292D01*
X42455D01*
Y38173D01*
Y38054D01*
X42337D01*
Y37936D01*
Y37817D01*
X42218D01*
Y37698D01*
Y37580D01*
X42099D01*
Y37461D01*
X41980D01*
Y37342D01*
Y37223D01*
X41031D01*
Y37342D01*
X40437D01*
Y37461D01*
X40081D01*
Y37580D01*
X39725D01*
Y37698D01*
X39487D01*
Y37817D01*
X39250D01*
Y37936D01*
X39012D01*
Y38054D01*
X38894D01*
Y38173D01*
X38656D01*
Y38292D01*
X38538D01*
Y38411D01*
X38300D01*
Y38529D01*
X38182D01*
Y38648D01*
X38063D01*
Y38767D01*
X37944D01*
Y38885D01*
X37825D01*
Y39004D01*
X37707D01*
Y39123D01*
X37588D01*
Y39242D01*
X37469D01*
Y39360D01*
X37350D01*
Y39479D01*
X37232D01*
Y39598D01*
X37113D01*
Y39716D01*
X36994D01*
Y39835D01*
X36876D01*
Y39954D01*
X36757D01*
Y40073D01*
X36638D01*
Y40191D01*
X36519D01*
Y40310D01*
X36282D01*
Y40191D01*
X36163D01*
Y40073D01*
X36045D01*
Y39954D01*
Y39835D01*
X35926D01*
Y39716D01*
X35807D01*
Y39598D01*
X35688D01*
Y39479D01*
X35570D01*
Y39360D01*
Y39242D01*
X35451D01*
Y39123D01*
X35332D01*
Y39004D01*
X35214D01*
Y38885D01*
X35095D01*
Y38767D01*
X34976D01*
Y38648D01*
X34857D01*
Y38529D01*
X34739D01*
Y38411D01*
X34620D01*
Y38292D01*
Y38173D01*
X34501D01*
Y38054D01*
X34383D01*
Y37936D01*
X34264D01*
Y37817D01*
X34145D01*
Y37698D01*
X34026D01*
Y37580D01*
X33908D01*
Y37461D01*
X33789D01*
Y37342D01*
X33670D01*
Y37223D01*
X33552D01*
Y37105D01*
X33433D01*
Y36986D01*
X33314D01*
Y36867D01*
X33195D01*
Y36749D01*
X33077D01*
Y36630D01*
Y36511D01*
X32958D01*
Y36393D01*
X32721D01*
Y36274D01*
X32602D01*
Y36155D01*
X32483D01*
Y36036D01*
X32364D01*
Y35918D01*
X32246D01*
Y35799D01*
X32008D01*
Y35680D01*
X31890D01*
Y35561D01*
X31652D01*
Y35443D01*
X31533D01*
Y35324D01*
X31296D01*
Y35205D01*
X31177D01*
Y35087D01*
X30940D01*
Y34968D01*
X30703D01*
Y34849D01*
X30465D01*
Y34730D01*
X30228D01*
Y34612D01*
X29990D01*
Y34493D01*
X29634D01*
Y34374D01*
X29397D01*
Y34256D01*
X29040D01*
Y34137D01*
X28684D01*
Y34018D01*
X28328D01*
Y33899D01*
X27853D01*
Y33781D01*
X27735D01*
Y33899D01*
X27497D01*
Y34018D01*
X27260D01*
Y34137D01*
X27022D01*
Y34256D01*
X26785D01*
Y34374D01*
X26666D01*
Y34493D01*
X26429D01*
Y34612D01*
X26191D01*
Y34730D01*
X25954D01*
Y34849D01*
X25716D01*
Y34968D01*
X25479D01*
Y35087D01*
X25242D01*
Y35205D01*
X25123D01*
Y35324D01*
X24885D01*
Y35443D01*
X24648D01*
Y35561D01*
X24529D01*
Y35680D01*
X24292D01*
Y35799D01*
X24173D01*
Y35918D01*
X23936D01*
Y36036D01*
X23817D01*
Y36155D01*
X23698D01*
Y36274D01*
X23461D01*
Y36393D01*
X23342D01*
Y36511D01*
X23223D01*
Y36630D01*
X23105D01*
Y36749D01*
X22867D01*
Y36867D01*
X22749D01*
Y36986D01*
X22630D01*
Y37105D01*
X22511D01*
Y37223D01*
X22274D01*
Y37342D01*
X22155D01*
Y37461D01*
X22036D01*
Y37580D01*
X21918D01*
Y37698D01*
X21799D01*
Y37817D01*
X21680D01*
Y37936D01*
X21561D01*
Y38054D01*
X21443D01*
Y38173D01*
X21205D01*
Y38292D01*
X21087D01*
Y38411D01*
X20968D01*
Y38529D01*
X20849D01*
Y38648D01*
X20730D01*
Y38767D01*
X20612D01*
Y38885D01*
X20493D01*
Y39004D01*
X20374D01*
Y39123D01*
X20256D01*
Y39242D01*
X20137D01*
Y39360D01*
X20018D01*
Y39479D01*
X19899D01*
Y39598D01*
X19781D01*
Y39716D01*
X19662D01*
Y39835D01*
X19543D01*
Y39954D01*
X19425D01*
Y40073D01*
X19187D01*
Y40191D01*
X19068D01*
Y40310D01*
X18950D01*
Y40429D01*
X18831D01*
Y40547D01*
X18712D01*
Y40666D01*
X18594D01*
Y40785D01*
X18475D01*
Y40904D01*
X18356D01*
Y41022D01*
X18237D01*
Y41141D01*
X18119D01*
Y41260D01*
X18000D01*
Y41378D01*
X17881D01*
Y41497D01*
X17763D01*
Y41616D01*
X17644D01*
Y41735D01*
X17525D01*
Y41853D01*
X17406D01*
Y41972D01*
X17169D01*
Y42091D01*
X17050D01*
Y42210D01*
X16932D01*
Y42328D01*
Y42447D01*
X16813D01*
Y42566D01*
X16694D01*
Y42684D01*
X16457D01*
Y42803D01*
X16338D01*
Y42922D01*
X16219D01*
Y43040D01*
X16101D01*
Y43159D01*
X15982D01*
Y43278D01*
X15863D01*
Y43397D01*
X15744D01*
Y43515D01*
X15626D01*
Y43634D01*
X15507D01*
Y43753D01*
X15388D01*
Y43871D01*
X15270D01*
Y43990D01*
X15151D01*
Y44109D01*
X15032D01*
Y44228D01*
X14913D01*
Y44346D01*
X14795D01*
Y44465D01*
X14676D01*
Y44584D01*
X14557D01*
Y44703D01*
X14439D01*
Y44821D01*
X14320D01*
Y44940D01*
X14201D01*
Y45059D01*
X14082D01*
Y45177D01*
X13964D01*
Y45296D01*
X13845D01*
Y45415D01*
X13726D01*
Y45533D01*
X13607D01*
Y45652D01*
X13489D01*
Y45771D01*
X13370D01*
Y45890D01*
X13251D01*
Y46008D01*
X13133D01*
Y46127D01*
X13014D01*
Y46246D01*
X12895D01*
Y46364D01*
X12777D01*
Y46483D01*
X12658D01*
Y46602D01*
X12539D01*
Y46721D01*
X12420D01*
Y46839D01*
X12302D01*
Y46958D01*
X12183D01*
Y47077D01*
X12064D01*
Y47196D01*
X11946D01*
Y47314D01*
X11827D01*
Y47433D01*
X11708D01*
Y47552D01*
X11589D01*
Y47670D01*
X11471D01*
Y47789D01*
X11352D01*
Y47908D01*
X11233D01*
Y48026D01*
X11114D01*
Y48145D01*
X10996D01*
Y48264D01*
X10877D01*
Y48383D01*
X10758D01*
Y48501D01*
X10640D01*
Y48620D01*
X10521D01*
Y48739D01*
X10402D01*
Y48857D01*
Y48976D01*
X10283D01*
Y49095D01*
Y49214D01*
X10402D01*
Y49332D01*
X10521D01*
Y49451D01*
X10640D01*
Y49570D01*
X10758D01*
Y49689D01*
X10877D01*
Y49807D01*
X10996D01*
Y49926D01*
X11114D01*
Y50045D01*
X11233D01*
Y50163D01*
X11352D01*
Y50282D01*
X11471D01*
Y50401D01*
X11589D01*
Y50519D01*
X11708D01*
Y50638D01*
X11946D01*
Y50757D01*
X12064D01*
Y50876D01*
X12183D01*
Y50994D01*
X12302D01*
Y51113D01*
X12539D01*
Y51232D01*
X12658D01*
Y51350D01*
X12777D01*
Y51469D01*
X13014D01*
Y51588D01*
X13133D01*
Y51707D01*
X13251D01*
Y51825D01*
X13489D01*
Y51944D01*
X13607D01*
Y52063D01*
X13845D01*
Y52182D01*
X13964D01*
Y52300D01*
X14201D01*
Y52419D01*
X14439D01*
Y52538D01*
X14676D01*
Y52656D01*
X14795D01*
Y52775D01*
X15032D01*
Y52894D01*
X15270D01*
Y53012D01*
X15507D01*
Y53131D01*
X15863D01*
Y53250D01*
X16219D01*
Y53369D01*
X16457D01*
Y53487D01*
X16813D01*
Y53606D01*
X17169D01*
Y53725D01*
X17525D01*
Y53843D01*
X18000D01*
Y53962D01*
X18594D01*
Y54081D01*
X19543D01*
Y54200D01*
D02*
G37*
G36*
X29871Y31881D02*
X30109D01*
Y31763D01*
X29871D01*
Y31881D01*
D02*
G37*
G36*
X20256Y31288D02*
X20493D01*
Y31169D01*
X20730D01*
Y31050D01*
X21087D01*
Y30932D01*
X21324D01*
Y30813D01*
X21680D01*
Y30694D01*
X21561D01*
Y30575D01*
X21324D01*
Y30457D01*
X21087D01*
Y30338D01*
X20849D01*
Y30219D01*
X20730D01*
Y30101D01*
X20612D01*
Y30219D01*
Y30338D01*
X20493D01*
Y30457D01*
Y30575D01*
Y30694D01*
Y30813D01*
X20374D01*
Y30932D01*
Y31050D01*
Y31169D01*
X20256D01*
Y31288D01*
D02*
G37*
G36*
X45779Y28439D02*
X46135D01*
Y28320D01*
X46729D01*
Y28201D01*
X47204D01*
Y28082D01*
X47797D01*
Y27964D01*
X48391D01*
Y27845D01*
X48747D01*
Y27726D01*
X48628D01*
Y27608D01*
X47323D01*
Y27726D01*
X46848D01*
Y27845D01*
X46491D01*
Y27964D01*
X46254D01*
Y28082D01*
X46017D01*
Y28201D01*
X45779D01*
Y28320D01*
Y28439D01*
D02*
G37*
G36*
X14795Y32475D02*
X16813D01*
Y32356D01*
X17406D01*
Y32237D01*
X17881D01*
Y32119D01*
X18000D01*
Y32000D01*
X18119D01*
Y31881D01*
X18237D01*
Y31763D01*
X18356D01*
Y31644D01*
Y31525D01*
X18475D01*
Y31406D01*
X18594D01*
Y31288D01*
X18712D01*
Y31169D01*
Y31050D01*
X18831D01*
Y30932D01*
Y30813D01*
X18950D01*
Y30694D01*
Y30575D01*
X19068D01*
Y30457D01*
Y30338D01*
Y30219D01*
X19187D01*
Y30101D01*
Y29982D01*
Y29863D01*
Y29744D01*
Y29626D01*
Y29507D01*
Y29388D01*
X19068D01*
Y29270D01*
Y29151D01*
Y29032D01*
X18950D01*
Y28913D01*
Y28795D01*
Y28676D01*
X18831D01*
Y28557D01*
Y28439D01*
Y28320D01*
X18712D01*
Y28201D01*
Y28082D01*
Y27964D01*
X18594D01*
Y27845D01*
Y27726D01*
Y27608D01*
X18475D01*
Y27489D01*
Y27370D01*
X18712D01*
Y27489D01*
X18950D01*
Y27608D01*
X19068D01*
Y27726D01*
X19306D01*
Y27845D01*
X19543D01*
Y27964D01*
X19781D01*
Y28082D01*
X20018D01*
Y28201D01*
X20137D01*
Y28320D01*
X20374D01*
Y28439D01*
X20612D01*
Y28557D01*
X20849D01*
Y28676D01*
X20968D01*
Y28795D01*
X21205D01*
Y28913D01*
X21443D01*
Y29032D01*
X21680D01*
Y29151D01*
X21918D01*
Y29270D01*
X22036D01*
Y29388D01*
X22274D01*
Y29507D01*
X22511D01*
Y29626D01*
X22749D01*
Y29744D01*
X22986D01*
Y29863D01*
X23223D01*
Y29744D01*
X23342D01*
Y29626D01*
Y29507D01*
X23461D01*
Y29388D01*
Y29270D01*
X23580D01*
Y29151D01*
Y29032D01*
X23698D01*
Y28913D01*
Y28795D01*
Y28676D01*
X23817D01*
Y28557D01*
Y28439D01*
Y28320D01*
Y28201D01*
Y28082D01*
X23936D01*
Y27964D01*
Y27845D01*
Y27726D01*
Y27608D01*
Y27489D01*
Y27370D01*
Y27251D01*
Y27133D01*
Y27014D01*
Y26895D01*
X24054D01*
Y26777D01*
Y26658D01*
Y26539D01*
Y26420D01*
Y26302D01*
Y26183D01*
Y26064D01*
Y25946D01*
Y25827D01*
X24173D01*
Y25708D01*
Y25589D01*
Y25471D01*
X24292D01*
Y25352D01*
Y25233D01*
X24411D01*
Y25115D01*
Y24996D01*
X24529D01*
Y24877D01*
X24648D01*
Y24758D01*
Y24640D01*
X24767D01*
Y24521D01*
X24885D01*
Y24402D01*
X25123D01*
Y24284D01*
X25242D01*
Y24165D01*
X25360D01*
Y24046D01*
X25598D01*
Y23927D01*
X25835D01*
Y23809D01*
X25954D01*
Y23690D01*
X26191D01*
Y23571D01*
X26429D01*
Y23453D01*
X26666D01*
Y23334D01*
X26785D01*
Y23215D01*
X27022D01*
Y23096D01*
X27141D01*
Y22978D01*
X27378D01*
Y22859D01*
X27616D01*
Y22740D01*
X27735D01*
Y22622D01*
X27972D01*
Y22503D01*
X28209D01*
Y22384D01*
X28447D01*
Y22265D01*
X28566D01*
Y22147D01*
X28803D01*
Y22028D01*
X29040D01*
Y21909D01*
X29278D01*
Y21791D01*
X29515D01*
Y21672D01*
X29753D01*
Y21553D01*
X29990D01*
Y21434D01*
X30228D01*
Y21316D01*
X30465D01*
Y21197D01*
X30703D01*
Y21078D01*
X30940D01*
Y20960D01*
X31177D01*
Y20841D01*
X31415D01*
Y20722D01*
X31652D01*
Y20603D01*
X31890D01*
Y20485D01*
X32127D01*
Y20366D01*
X32364D01*
Y20247D01*
X32721D01*
Y20129D01*
X32958D01*
Y20010D01*
X33195D01*
Y19891D01*
X33433D01*
Y19772D01*
X33670D01*
Y19654D01*
X34026D01*
Y19535D01*
X34264D01*
Y19416D01*
X34620D01*
Y19298D01*
X34857D01*
Y19179D01*
X35214D01*
Y19060D01*
X35451D01*
Y18941D01*
X35807D01*
Y18823D01*
X36045D01*
Y18704D01*
X36401D01*
Y18585D01*
X36638D01*
Y18467D01*
X36876D01*
Y18348D01*
X36994D01*
Y18229D01*
Y18110D01*
X36876D01*
Y17992D01*
X36757D01*
Y17873D01*
Y17754D01*
X36638D01*
Y17636D01*
X36519D01*
Y17517D01*
Y17398D01*
X36401D01*
Y17279D01*
Y17161D01*
X36282D01*
Y17042D01*
X36163D01*
Y16923D01*
Y16805D01*
X36045D01*
Y16686D01*
X35926D01*
Y16567D01*
X35807D01*
Y16448D01*
Y16330D01*
X35688D01*
Y16211D01*
X35570D01*
Y16092D01*
Y15974D01*
X35451D01*
Y15855D01*
X35332D01*
Y15736D01*
Y15617D01*
X35214D01*
Y15499D01*
X35095D01*
Y15380D01*
Y15261D01*
X34976D01*
Y15143D01*
X34857D01*
Y15024D01*
Y14905D01*
X34739D01*
Y14786D01*
X34620D01*
Y14668D01*
Y14549D01*
X34501D01*
Y14430D01*
X34383D01*
Y14312D01*
Y14193D01*
X34264D01*
Y14074D01*
X34145D01*
Y13955D01*
X34026D01*
Y13837D01*
X33908D01*
Y13718D01*
X33789D01*
Y13599D01*
Y13481D01*
X33670D01*
Y13362D01*
X33552D01*
Y13243D01*
X33433D01*
Y13124D01*
X33314D01*
Y13006D01*
Y12887D01*
X33195D01*
Y12768D01*
X33077D01*
Y12650D01*
Y12531D01*
X32958D01*
Y12412D01*
X32839D01*
Y12293D01*
X32721D01*
Y12175D01*
X32602D01*
Y12056D01*
Y11937D01*
X32483D01*
Y11819D01*
X32364D01*
Y11700D01*
X32246D01*
Y11581D01*
X32127D01*
Y11462D01*
X32008D01*
Y11344D01*
X31890D01*
Y11225D01*
Y11106D01*
X31771D01*
Y10988D01*
X31652D01*
Y10869D01*
X31533D01*
Y10750D01*
X31296D01*
Y10631D01*
X31177D01*
Y10513D01*
X30940D01*
Y10394D01*
X30584D01*
Y10275D01*
X30109D01*
Y10394D01*
X29634D01*
Y10513D01*
X29278D01*
Y10631D01*
X29040D01*
Y10750D01*
X28803D01*
Y10869D01*
X28566D01*
Y10988D01*
X28328D01*
Y11106D01*
X28209D01*
Y11225D01*
X27972D01*
Y11344D01*
X27853D01*
Y11462D01*
X27616D01*
Y11581D01*
X27378D01*
Y11700D01*
X27260D01*
Y11819D01*
X27022D01*
Y11937D01*
X26904D01*
Y12056D01*
X26785D01*
Y12175D01*
X26547D01*
Y12293D01*
X26429D01*
Y12412D01*
X26310D01*
Y12531D01*
X26191D01*
Y12650D01*
X25954D01*
Y12768D01*
X25835D01*
Y12887D01*
X25716D01*
Y13006D01*
X25479D01*
Y13124D01*
X25360D01*
Y13243D01*
X25242D01*
Y13362D01*
X25123D01*
Y13481D01*
X25004D01*
Y13599D01*
X24885D01*
Y13718D01*
X24767D01*
Y13837D01*
X24529D01*
Y13955D01*
X24411D01*
Y14074D01*
X24292D01*
Y14193D01*
X24054D01*
Y14312D01*
X23936D01*
Y14430D01*
X23817D01*
Y14549D01*
X23698D01*
Y14668D01*
X23580D01*
Y14786D01*
X23342D01*
Y14905D01*
X23223D01*
Y15024D01*
X23105D01*
Y15143D01*
X22986D01*
Y15261D01*
X22867D01*
Y15380D01*
X22749D01*
Y15499D01*
X22511D01*
Y15617D01*
X22392D01*
Y15736D01*
X22274D01*
Y15855D01*
X22155D01*
Y15974D01*
X21918D01*
Y16092D01*
X21799D01*
Y16211D01*
X21680D01*
Y16330D01*
X21561D01*
Y16448D01*
X21443D01*
Y16567D01*
X21205D01*
Y16686D01*
X21087D01*
Y16805D01*
X20968D01*
Y16923D01*
X20730D01*
Y17042D01*
X20612D01*
Y17161D01*
X20493D01*
Y17279D01*
X20374D01*
Y17398D01*
X20256D01*
Y17517D01*
X20137D01*
Y17636D01*
X19899D01*
Y17754D01*
X19781D01*
Y17873D01*
X19662D01*
Y17992D01*
X19543D01*
Y18110D01*
X19425D01*
Y18229D01*
X19187D01*
Y18348D01*
X19068D01*
Y18467D01*
X18950D01*
Y18585D01*
X18831D01*
Y18704D01*
X18712D01*
Y18823D01*
X18475D01*
Y18941D01*
X18356D01*
Y19060D01*
X18237D01*
Y19179D01*
X18119D01*
Y19298D01*
X17881D01*
Y19416D01*
X17763D01*
Y19535D01*
X17644D01*
Y19654D01*
X17525D01*
Y19772D01*
X17288D01*
Y19891D01*
X17169D01*
Y20010D01*
X17050D01*
Y20129D01*
X16932D01*
Y20247D01*
X16813D01*
Y20366D01*
X16694D01*
Y20485D01*
X16457D01*
Y20603D01*
Y20722D01*
X16338D01*
Y20841D01*
X16219D01*
Y20960D01*
X16101D01*
Y21078D01*
X15982D01*
Y21197D01*
X15863D01*
Y21316D01*
X15744D01*
Y21434D01*
Y21553D01*
X15626D01*
Y21672D01*
X15507D01*
Y21791D01*
X15388D01*
Y21909D01*
X15270D01*
Y22028D01*
X15151D01*
Y22147D01*
X15032D01*
Y22265D01*
X14913D01*
Y22384D01*
X14795D01*
Y22503D01*
Y22622D01*
X14676D01*
Y22740D01*
X14557D01*
Y22859D01*
Y22978D01*
X14439D01*
Y23096D01*
X14320D01*
Y23215D01*
Y23334D01*
X14201D01*
Y23453D01*
Y23571D01*
X14082D01*
Y23690D01*
Y23809D01*
Y23927D01*
X13964D01*
Y24046D01*
Y24165D01*
X13845D01*
Y24284D01*
Y24402D01*
Y24521D01*
X13726D01*
Y24640D01*
Y24758D01*
Y24877D01*
X13607D01*
Y24996D01*
Y25115D01*
Y25233D01*
X13489D01*
Y25352D01*
Y25471D01*
Y25589D01*
X13370D01*
Y25708D01*
Y25827D01*
Y25946D01*
Y26064D01*
X13251D01*
Y26183D01*
Y26302D01*
Y26420D01*
Y26539D01*
X13133D01*
Y26658D01*
Y26777D01*
Y26895D01*
Y27014D01*
Y27133D01*
X13014D01*
Y27251D01*
Y27370D01*
Y27489D01*
Y27608D01*
Y27726D01*
Y27845D01*
Y27964D01*
X12895D01*
Y28082D01*
Y28201D01*
Y28320D01*
Y28439D01*
Y28557D01*
Y28676D01*
Y28795D01*
Y28913D01*
Y29032D01*
Y29151D01*
Y29270D01*
Y29388D01*
Y29507D01*
Y29626D01*
Y29744D01*
Y29863D01*
Y29982D01*
X13014D01*
Y30101D01*
Y30219D01*
Y30338D01*
Y30457D01*
Y30575D01*
X13133D01*
Y30694D01*
Y30813D01*
Y30932D01*
X13251D01*
Y31050D01*
Y31169D01*
Y31288D01*
X13370D01*
Y31406D01*
X13489D01*
Y31525D01*
Y31644D01*
X13607D01*
Y31763D01*
X13726D01*
Y31881D01*
X13845D01*
Y32000D01*
X13964D01*
Y32119D01*
X14201D01*
Y32237D01*
X14439D01*
Y32356D01*
X14795D01*
Y32475D01*
D02*
G37*
G36*
X36282Y38292D02*
X36519D01*
Y38173D01*
X36638D01*
Y38054D01*
X36757D01*
Y37936D01*
X36876D01*
Y37817D01*
X36994D01*
Y37698D01*
X37232D01*
Y37580D01*
X37350D01*
Y37461D01*
X37469D01*
Y37342D01*
X37707D01*
Y37223D01*
X37825D01*
Y37105D01*
X38063D01*
Y36986D01*
X38182D01*
Y36867D01*
X38419D01*
Y36749D01*
X38656D01*
Y36630D01*
X38894D01*
Y36511D01*
X39131D01*
Y36393D01*
X39487D01*
Y36274D01*
X39843D01*
Y36155D01*
X40437D01*
Y36036D01*
X41149D01*
Y35918D01*
X41743D01*
Y35799D01*
X41862D01*
Y35680D01*
Y35561D01*
Y35443D01*
Y35324D01*
Y35205D01*
Y35087D01*
Y34968D01*
Y34849D01*
Y34730D01*
Y34612D01*
Y34493D01*
Y34374D01*
Y34256D01*
Y34137D01*
Y34018D01*
Y33899D01*
Y33781D01*
Y33662D01*
Y33543D01*
Y33425D01*
Y33306D01*
Y33187D01*
Y33068D01*
Y32950D01*
Y32831D01*
Y32712D01*
Y32594D01*
Y32475D01*
Y32356D01*
Y32237D01*
Y32119D01*
Y32000D01*
Y31881D01*
Y31763D01*
Y31644D01*
Y31525D01*
Y31406D01*
Y31288D01*
Y31169D01*
Y31050D01*
Y30932D01*
Y30813D01*
Y30694D01*
Y30575D01*
Y30457D01*
Y30338D01*
Y30219D01*
Y30101D01*
Y29982D01*
Y29863D01*
Y29744D01*
Y29626D01*
Y29507D01*
X41743D01*
Y29388D01*
Y29270D01*
Y29151D01*
Y29032D01*
Y28913D01*
Y28795D01*
Y28676D01*
Y28557D01*
Y28439D01*
Y28320D01*
Y28201D01*
Y28082D01*
Y27964D01*
Y27845D01*
X41624D01*
Y27726D01*
Y27608D01*
Y27489D01*
Y27370D01*
X41505D01*
Y27489D01*
X41149D01*
Y27608D01*
X40912D01*
Y27726D01*
X40675D01*
Y27845D01*
X40437D01*
Y27964D01*
X40081D01*
Y28082D01*
X39843D01*
Y28201D01*
X39606D01*
Y28320D01*
X39369D01*
Y28439D01*
X39131D01*
Y28557D01*
X38894D01*
Y28676D01*
X38538D01*
Y28795D01*
X38300D01*
Y28913D01*
X38063D01*
Y29032D01*
X37825D01*
Y29151D01*
X37469D01*
Y29270D01*
X37232D01*
Y29388D01*
X36994D01*
Y29507D01*
X36757D01*
Y29626D01*
X36519D01*
Y29744D01*
X36163D01*
Y29863D01*
X35926D01*
Y29982D01*
X35688D01*
Y30101D01*
X35332D01*
Y30219D01*
X35095D01*
Y30338D01*
X34857D01*
Y30457D01*
X34620D01*
Y30575D01*
X34383D01*
Y30694D01*
X34026D01*
Y30813D01*
X33789D01*
Y30932D01*
X33552D01*
Y31050D01*
X33314D01*
Y31169D01*
X33077D01*
Y31288D01*
X32721D01*
Y31406D01*
X32483D01*
Y31525D01*
X32246D01*
Y31644D01*
X32008D01*
Y31763D01*
X31771D01*
Y31881D01*
X31415D01*
Y32000D01*
X31177D01*
Y32119D01*
X30940D01*
Y32237D01*
X30703D01*
Y32356D01*
X30346D01*
Y32475D01*
X30109D01*
Y32594D01*
X29871D01*
Y32712D01*
X29634D01*
Y32831D01*
Y32950D01*
X29871D01*
Y33068D01*
X30228D01*
Y33187D01*
X30465D01*
Y33306D01*
X30703D01*
Y33425D01*
X30940D01*
Y33543D01*
X31177D01*
Y33662D01*
X31415D01*
Y33781D01*
X31652D01*
Y33899D01*
X31890D01*
Y34018D01*
X32008D01*
Y34137D01*
X32246D01*
Y34256D01*
X32364D01*
Y34374D01*
X32602D01*
Y34493D01*
X32721D01*
Y34612D01*
X32958D01*
Y34730D01*
X33077D01*
Y34849D01*
X33195D01*
Y34968D01*
X33433D01*
Y35087D01*
X33552D01*
Y35205D01*
X33670D01*
Y35324D01*
X33789D01*
Y35443D01*
X33908D01*
Y35561D01*
X34026D01*
Y35680D01*
X34145D01*
Y35799D01*
X34264D01*
Y35918D01*
X34383D01*
Y36036D01*
X34501D01*
Y36155D01*
X34620D01*
Y36274D01*
X34739D01*
Y36393D01*
X34857D01*
Y36511D01*
X34976D01*
Y36630D01*
X35095D01*
Y36749D01*
X35214D01*
Y36867D01*
X35332D01*
Y36986D01*
Y37105D01*
X35451D01*
Y37223D01*
X35570D01*
Y37342D01*
X35688D01*
Y37461D01*
X35807D01*
Y37580D01*
X35926D01*
Y37698D01*
Y37817D01*
X36045D01*
Y37936D01*
X36163D01*
Y38054D01*
X36282D01*
Y38173D01*
Y38292D01*
D02*
G37*
G36*
X6366Y42210D02*
X6485D01*
Y42091D01*
X6603D01*
Y41972D01*
Y41853D01*
X6722D01*
Y41735D01*
X6841D01*
Y41616D01*
X6959D01*
Y41497D01*
X7078D01*
Y41378D01*
X7197D01*
Y41260D01*
X7316D01*
Y41141D01*
X7434D01*
Y41022D01*
Y40904D01*
X7553D01*
Y40785D01*
X7672D01*
Y40666D01*
X7791D01*
Y40547D01*
X7909D01*
Y40429D01*
X8028D01*
Y40310D01*
X8147D01*
Y40191D01*
X8265D01*
Y40073D01*
X8384D01*
Y39954D01*
X8503D01*
Y39835D01*
X8622D01*
Y39716D01*
X8740D01*
Y39598D01*
X8859D01*
Y39479D01*
X8978D01*
Y39360D01*
X9096D01*
Y39242D01*
X9215D01*
Y39123D01*
X9334D01*
Y39004D01*
X9453D01*
Y38885D01*
X9571D01*
Y38767D01*
X9690D01*
Y38648D01*
X9809D01*
Y38529D01*
X9927D01*
Y38411D01*
X10046D01*
Y38292D01*
X10165D01*
Y38173D01*
X10283D01*
Y38054D01*
X10402D01*
Y37936D01*
X10521D01*
Y37817D01*
X10640D01*
Y37698D01*
X10758D01*
Y37580D01*
X10996D01*
Y37461D01*
X11114D01*
Y37342D01*
X11233D01*
Y37223D01*
X11352D01*
Y37105D01*
X11471D01*
Y36986D01*
X11589D01*
Y36867D01*
X11827D01*
Y36749D01*
X11946D01*
Y36630D01*
X12064D01*
Y36511D01*
X12183D01*
Y36393D01*
X12302D01*
Y36274D01*
X12420D01*
Y36155D01*
X12658D01*
Y36036D01*
X12777D01*
Y35918D01*
X12895D01*
Y35799D01*
X13014D01*
Y35680D01*
X13251D01*
Y35561D01*
X13370D01*
Y35443D01*
X13489D01*
Y35324D01*
X13607D01*
Y35205D01*
X13845D01*
Y35087D01*
X13964D01*
Y34968D01*
X14082D01*
Y34849D01*
X14320D01*
Y34730D01*
X14439D01*
Y34612D01*
X14676D01*
Y34493D01*
X14795D01*
Y34374D01*
X14913D01*
Y34256D01*
X15151D01*
Y34137D01*
X15270D01*
Y34018D01*
X15507D01*
Y33899D01*
X14557D01*
Y33781D01*
X14201D01*
Y33662D01*
X13845D01*
Y33543D01*
X13607D01*
Y33425D01*
X13370D01*
Y33306D01*
X13251D01*
Y33187D01*
X13014D01*
Y33068D01*
X12895D01*
Y32950D01*
X12777D01*
Y32831D01*
X12658D01*
Y32712D01*
X12539D01*
Y32594D01*
X12420D01*
Y32475D01*
X12302D01*
Y32356D01*
Y32237D01*
X12183D01*
Y32119D01*
Y32000D01*
X12064D01*
Y31881D01*
X11946D01*
Y31763D01*
Y31644D01*
Y31525D01*
X11827D01*
Y31406D01*
Y31288D01*
X11708D01*
Y31169D01*
Y31050D01*
Y30932D01*
Y30813D01*
X11589D01*
Y30694D01*
Y30575D01*
Y30457D01*
Y30338D01*
Y30219D01*
X11471D01*
Y30101D01*
Y29982D01*
Y29863D01*
Y29744D01*
Y29626D01*
Y29507D01*
Y29388D01*
Y29270D01*
Y29151D01*
Y29032D01*
Y28913D01*
Y28795D01*
Y28676D01*
Y28557D01*
Y28439D01*
Y28320D01*
Y28201D01*
Y28082D01*
Y27964D01*
Y27845D01*
Y27726D01*
X11589D01*
Y27608D01*
Y27489D01*
Y27370D01*
Y27251D01*
Y27133D01*
Y27014D01*
X11708D01*
Y26895D01*
Y26777D01*
Y26658D01*
Y26539D01*
Y26420D01*
X11827D01*
Y26302D01*
Y26183D01*
Y26064D01*
Y25946D01*
Y25827D01*
X11946D01*
Y25708D01*
Y25589D01*
Y25471D01*
Y25352D01*
X12064D01*
Y25233D01*
Y25115D01*
Y24996D01*
X12183D01*
Y24877D01*
Y24758D01*
Y24640D01*
X12302D01*
Y24521D01*
Y24402D01*
X12183D01*
Y24521D01*
X12064D01*
Y24640D01*
X11827D01*
Y24758D01*
X11589D01*
Y24877D01*
X11471D01*
Y24996D01*
X11233D01*
Y25115D01*
X11114D01*
Y25233D01*
X10877D01*
Y25352D01*
X10758D01*
Y25471D01*
X10640D01*
Y25589D01*
X10521D01*
Y25708D01*
X10402D01*
Y25827D01*
X10283D01*
Y25946D01*
X10165D01*
Y26064D01*
X10046D01*
Y26183D01*
X9927D01*
Y26302D01*
X9809D01*
Y26420D01*
X9690D01*
Y26539D01*
X9571D01*
Y26658D01*
Y26777D01*
X9453D01*
Y26895D01*
X9334D01*
Y27014D01*
X9215D01*
Y27133D01*
Y27251D01*
X9096D01*
Y27370D01*
X8978D01*
Y27489D01*
X8859D01*
Y27608D01*
Y27726D01*
X8740D01*
Y27845D01*
X8622D01*
Y27964D01*
Y28082D01*
X8503D01*
Y28201D01*
X8384D01*
Y28320D01*
Y28439D01*
X8265D01*
Y28557D01*
X8147D01*
Y28676D01*
Y28795D01*
X8028D01*
Y28913D01*
Y29032D01*
X7909D01*
Y29151D01*
X7791D01*
Y29270D01*
Y29388D01*
X7672D01*
Y29507D01*
Y29626D01*
X7553D01*
Y29744D01*
X7434D01*
Y29863D01*
Y29982D01*
X7316D01*
Y30101D01*
Y30219D01*
X7197D01*
Y30338D01*
Y30457D01*
Y30575D01*
X7078D01*
Y30694D01*
Y30813D01*
X6959D01*
Y30932D01*
Y31050D01*
X6841D01*
Y31169D01*
Y31288D01*
Y31406D01*
X6722D01*
Y31525D01*
Y31644D01*
X6603D01*
Y31763D01*
Y31881D01*
X6485D01*
Y32000D01*
Y32119D01*
Y32237D01*
X6366D01*
Y32356D01*
Y32475D01*
X6247D01*
Y32594D01*
Y32712D01*
Y32831D01*
X6129D01*
Y32950D01*
Y33068D01*
Y33187D01*
Y33306D01*
X6010D01*
Y33425D01*
Y33543D01*
Y33662D01*
X5891D01*
Y33781D01*
Y33899D01*
Y34018D01*
Y34137D01*
X5772D01*
Y34256D01*
Y34374D01*
Y34493D01*
Y34612D01*
Y34730D01*
X5654D01*
Y34849D01*
Y34968D01*
Y35087D01*
Y35205D01*
Y35324D01*
Y35443D01*
X5535D01*
Y35561D01*
Y35680D01*
Y35799D01*
Y35918D01*
Y36036D01*
Y36155D01*
Y36274D01*
Y36393D01*
Y36511D01*
X5416D01*
Y36630D01*
Y36749D01*
Y36867D01*
Y36986D01*
Y37105D01*
Y37223D01*
Y37342D01*
Y37461D01*
Y37580D01*
Y37698D01*
Y37817D01*
Y37936D01*
Y38054D01*
Y38173D01*
Y38292D01*
Y38411D01*
Y38529D01*
Y38648D01*
Y38767D01*
Y38885D01*
X5535D01*
Y39004D01*
Y39123D01*
Y39242D01*
Y39360D01*
Y39479D01*
Y39598D01*
X5654D01*
Y39716D01*
Y39835D01*
Y39954D01*
Y40073D01*
X5772D01*
Y40191D01*
Y40310D01*
Y40429D01*
Y40547D01*
X5891D01*
Y40666D01*
Y40785D01*
Y40904D01*
X6010D01*
Y41022D01*
Y41141D01*
Y41260D01*
Y41378D01*
X6129D01*
Y41497D01*
Y41616D01*
Y41735D01*
X6247D01*
Y41853D01*
Y41972D01*
Y42091D01*
X6366D01*
Y42210D01*
D02*
G37*
G36*
X30109Y31763D02*
X30465D01*
Y31644D01*
X30821D01*
Y31525D01*
X31059D01*
Y31406D01*
X31415D01*
Y31288D01*
X31652D01*
Y31169D01*
X32008D01*
Y31050D01*
X32246D01*
Y30932D01*
X32602D01*
Y30813D01*
X32839D01*
Y30694D01*
X33195D01*
Y30575D01*
X33433D01*
Y30457D01*
X33670D01*
Y30338D01*
X34026D01*
Y30219D01*
X34264D01*
Y30101D01*
X34620D01*
Y29982D01*
X34857D01*
Y29863D01*
X35214D01*
Y29744D01*
X35451D01*
Y29626D01*
X35807D01*
Y29507D01*
X36045D01*
Y29388D01*
X36282D01*
Y29270D01*
X36519D01*
Y29151D01*
X36876D01*
Y29032D01*
X37113D01*
Y28913D01*
X37350D01*
Y28795D01*
X37588D01*
Y28676D01*
X37825D01*
Y28557D01*
X38182D01*
Y28439D01*
X38419D01*
Y28320D01*
X38656D01*
Y28201D01*
X38894D01*
Y28082D01*
X39131D01*
Y27964D01*
X39369D01*
Y27845D01*
X39606D01*
Y27726D01*
X39843D01*
Y27608D01*
X40081D01*
Y27489D01*
X40318D01*
Y27370D01*
X40556D01*
Y27251D01*
X40793D01*
Y27133D01*
X41031D01*
Y27014D01*
X41268D01*
Y26895D01*
X41505D01*
Y26777D01*
X41624D01*
Y26658D01*
X41862D01*
Y26539D01*
X42099D01*
Y26420D01*
X42337D01*
Y26302D01*
X42455D01*
Y26183D01*
X42693D01*
Y26064D01*
X42811D01*
Y25946D01*
X43049D01*
Y25827D01*
X43168D01*
Y25708D01*
X43405D01*
Y25589D01*
X43524D01*
Y25471D01*
X43642D01*
Y25352D01*
X43880D01*
Y25233D01*
X43998D01*
Y25115D01*
X44117D01*
Y24996D01*
X44236D01*
Y24877D01*
X44473D01*
Y24758D01*
X44592D01*
Y24640D01*
X44711D01*
Y24521D01*
X44830D01*
Y24402D01*
X44948D01*
Y24284D01*
X45067D01*
Y24165D01*
Y24046D01*
X44830D01*
Y24165D01*
X44592D01*
Y24284D01*
X44355D01*
Y24402D01*
X44117D01*
Y24521D01*
X43880D01*
Y24640D01*
X43642D01*
Y24758D01*
X43405D01*
Y24877D01*
X43168D01*
Y24996D01*
X42930D01*
Y25115D01*
X42811D01*
Y25233D01*
X42574D01*
Y25352D01*
X42337D01*
Y25471D01*
X42099D01*
Y25589D01*
X41862D01*
Y25708D01*
X41624D01*
Y25827D01*
X41387D01*
Y25946D01*
X41149D01*
Y26064D01*
X40912D01*
Y26183D01*
X40675D01*
Y26302D01*
X40437D01*
Y26420D01*
X40200D01*
Y26539D01*
X39962D01*
Y26658D01*
X39843D01*
Y26777D01*
X39606D01*
Y26895D01*
X39369D01*
Y27014D01*
X39131D01*
Y27133D01*
X38894D01*
Y27251D01*
X38656D01*
Y27370D01*
X38419D01*
Y27489D01*
X38182D01*
Y27608D01*
X37944D01*
Y27726D01*
X37707D01*
Y27845D01*
X37469D01*
Y27964D01*
X37232D01*
Y28082D01*
X36994D01*
Y28201D01*
X36757D01*
Y28320D01*
X36519D01*
Y28439D01*
X36282D01*
Y28557D01*
X36163D01*
Y28676D01*
X35926D01*
Y28795D01*
X35688D01*
Y28913D01*
X35451D01*
Y29032D01*
X35214D01*
Y29151D01*
X34976D01*
Y29270D01*
X34739D01*
Y29388D01*
X34501D01*
Y29507D01*
X34264D01*
Y29626D01*
X34026D01*
Y29744D01*
X33789D01*
Y29863D01*
X33552D01*
Y29982D01*
X33314D01*
Y30101D01*
X33077D01*
Y30219D01*
X32839D01*
Y30338D01*
X32602D01*
Y30457D01*
X32364D01*
Y30575D01*
X32127D01*
Y30694D01*
X32008D01*
Y30813D01*
X31771D01*
Y30932D01*
X31533D01*
Y31050D01*
X31296D01*
Y31169D01*
X31059D01*
Y31288D01*
X30821D01*
Y31406D01*
X30584D01*
Y31525D01*
X30346D01*
Y31644D01*
X30109D01*
Y31763D01*
D02*
G37*
G36*
X45067Y24046D02*
X45186D01*
Y23927D01*
X45067D01*
Y24046D01*
D02*
G37*
G36*
X34857Y27251D02*
X35688D01*
Y27133D01*
X36163D01*
Y27014D01*
X36401D01*
Y26895D01*
X36638D01*
Y26777D01*
X36757D01*
Y26658D01*
X36994D01*
Y26539D01*
X37113D01*
Y26420D01*
X37232D01*
Y26302D01*
X37350D01*
Y26183D01*
X37469D01*
Y26064D01*
X37588D01*
Y25946D01*
X37707D01*
Y25827D01*
Y25708D01*
X37825D01*
Y25589D01*
X37944D01*
Y25471D01*
Y25352D01*
X38063D01*
Y25233D01*
X38182D01*
Y25115D01*
Y24996D01*
X38300D01*
Y24877D01*
Y24758D01*
X38419D01*
Y24640D01*
Y24521D01*
X38538D01*
Y24402D01*
Y24284D01*
Y24165D01*
X38656D01*
Y24046D01*
Y23927D01*
Y23809D01*
X38775D01*
Y23690D01*
Y23571D01*
Y23453D01*
Y23334D01*
Y23215D01*
Y23096D01*
Y22978D01*
Y22859D01*
Y22740D01*
Y22622D01*
Y22503D01*
Y22384D01*
Y22265D01*
Y22147D01*
Y22028D01*
X38656D01*
Y21909D01*
Y21791D01*
Y21672D01*
X38538D01*
Y21553D01*
Y21434D01*
X38419D01*
Y21316D01*
Y21197D01*
X38300D01*
Y21078D01*
X38182D01*
Y20960D01*
X38063D01*
Y20841D01*
X37944D01*
Y20722D01*
X37707D01*
Y20603D01*
X37469D01*
Y20485D01*
X37232D01*
Y20366D01*
X36045D01*
Y20485D01*
X35688D01*
Y20603D01*
X35451D01*
Y20722D01*
X35214D01*
Y20841D01*
X35095D01*
Y20960D01*
X34857D01*
Y21078D01*
X34739D01*
Y21197D01*
X34620D01*
Y21316D01*
X34501D01*
Y21434D01*
X34383D01*
Y21553D01*
X34264D01*
Y21672D01*
X34145D01*
Y21791D01*
Y21909D01*
X34026D01*
Y22028D01*
X33908D01*
Y22147D01*
X33789D01*
Y22265D01*
Y22384D01*
X33670D01*
Y22503D01*
X33552D01*
Y22622D01*
Y22740D01*
X33433D01*
Y22859D01*
Y22978D01*
X33314D01*
Y23096D01*
Y23215D01*
Y23334D01*
X33195D01*
Y23453D01*
Y23571D01*
Y23690D01*
Y23809D01*
X33077D01*
Y23927D01*
Y24046D01*
Y24165D01*
Y24284D01*
Y24402D01*
Y24521D01*
Y24640D01*
Y24758D01*
Y24877D01*
Y24996D01*
Y25115D01*
Y25233D01*
Y25352D01*
Y25471D01*
X33195D01*
Y25589D01*
Y25708D01*
Y25827D01*
Y25946D01*
X33314D01*
Y26064D01*
X33433D01*
Y26183D01*
Y26302D01*
X33552D01*
Y26420D01*
X33670D01*
Y26539D01*
X33789D01*
Y26658D01*
X33908D01*
Y26777D01*
X34026D01*
Y26895D01*
X34264D01*
Y27014D01*
X34501D01*
Y27133D01*
X34857D01*
Y27251D01*
D02*
G37*
%LPD*%
D46*
X154290Y303093D02*
D03*
X256790D02*
D03*
Y266094D02*
D03*
X154290D02*
D03*
D47*
X261501Y208100D02*
D03*
Y245100D02*
D03*
D63*
X6200Y304000D02*
D03*
X31600D02*
D03*
X57000D02*
D03*
X82400D02*
D03*
X107800D02*
D03*
X133200D02*
D03*
M02*
