G04*
G04 #@! TF.GenerationSoftware,Altium Limited,Altium Designer,20.0.13 (296)*
G04*
G04 Layer_Physical_Order=2*
G04 Layer_Color=32768*
%FSLAX44Y44*%
%MOMM*%
G71*
G01*
G75*
%ADD57C,1.0160*%
%AMTHOVALD58*
21,1,0.7501,1.4000,0,0,270.0*
1,1,1.4000,0.0000,0.3750*
1,1,1.4000,0.0000,-0.3750*
21,0,0.7501,1.0000,0,0,270.0*
1,0,1.0000,0.0000,0.3750*
1,0,1.0000,0.0000,-0.3750*
4,0,4,-0.0884,0.2866,-0.5833,0.7816,-0.4066,0.9584,0.0884,0.4634,-0.0884,0.2866,0.0*
4,0,4,-0.0884,-0.4634,0.4066,-0.9584,0.5833,-0.7816,0.0884,-0.2866,-0.0884,-0.4634,0.0*
4,0,4,-0.0884,0.4634,0.4066,0.9584,0.5833,0.7816,0.0884,0.2866,-0.0884,0.4634,0.0*
4,0,4,-0.0884,-0.2866,-0.5833,-0.7816,-0.4066,-0.9584,0.0884,-0.4634,-0.0884,-0.2866,0.0*
%
%ADD58THOVALD58*%

G04:AMPARAMS|DCode=59|XSize=1.4mm|YSize=1.4mm|CornerRadius=0mm|HoleSize=0mm|Usage=FLASHONLY|Rotation=0.000|XOffset=0mm|YOffset=0mm|HoleType=Round|Shape=Relief|Width=0.25mm|Gap=0.2mm|Entries=4|*
%AMTHD59*
7,0,0,1.4000,1.0000,0.2500,45*
%
%ADD59THD59*%
%ADD60C,1.1000*%
%ADD61C,1.1500*%
G36*
X245113Y272235D02*
X165539D01*
Y334977D01*
X245112D01*
X245113Y272235D01*
D02*
G37*
D57*
X-5019Y132223D02*
Y310995D01*
Y132223D02*
X-5019Y131599D01*
X-4521Y130454D01*
X-3608Y129603D01*
X-2431Y129187D01*
X-1808Y129230D01*
X-316Y129233D01*
X2602Y128632D01*
X5249Y127265D01*
X7428Y125234D01*
X8977Y122690D01*
X9782Y119822D01*
Y116843D02*
Y119822D01*
X8977Y113975D02*
X9782Y116843D01*
X7428Y111431D02*
X8977Y113975D01*
X5249Y109400D02*
X7428Y111431D01*
X2602Y108033D02*
X5249Y109400D01*
X-316Y107432D02*
X2602Y108033D01*
X-1808Y107435D02*
X-316Y107432D01*
X-2431Y107478D02*
X-1808Y107435D01*
X-3608Y107062D02*
X-2431Y107478D01*
X-4521Y106211D02*
X-3608Y107062D01*
X-5019Y105066D02*
X-4521Y106211D01*
X-5019Y-1014D02*
Y105066D01*
X267145Y6783D02*
Y105066D01*
X266647Y106211D02*
X267145Y105066D01*
X265734Y107062D02*
X266647Y106211D01*
X264557Y107478D02*
X265734Y107062D01*
X263935Y107435D02*
X264557Y107478D01*
X262442Y107432D02*
X263935Y107435D01*
X259524Y108033D02*
X262442Y107432D01*
X256877Y109400D02*
X259524Y108033D01*
X254698Y111431D02*
X256877Y109400D01*
X253149Y113975D02*
X254698Y111431D01*
X252344Y116843D02*
X253149Y113975D01*
X252344Y116843D02*
Y119822D01*
X253149Y122690D01*
X254698Y125234D01*
X256877Y127265D01*
X259524Y128632D01*
X262442Y129233D01*
X263935Y129230D01*
X264557Y129187D01*
X265734Y129603D01*
X266647Y130454D01*
X267145Y131599D01*
Y310995D01*
X245113Y272235D02*
Y272240D01*
X165539Y272235D02*
X245113D01*
X165539D02*
Y315000D01*
X-1014D02*
X165539D01*
X263140D02*
X264978Y314239D01*
X245113Y315000D02*
X263140D01*
X245113D02*
X245113Y272240D01*
X-2851Y314239D02*
X-1014Y315000D01*
X-4258Y312832D02*
X-2851Y314239D01*
X-5019Y310995D02*
X-4258Y312832D01*
X266384D02*
X267145Y310995D01*
X264978Y314239D02*
X266384Y312832D01*
X-5019Y-1014D02*
X-4258Y-2851D01*
X-2851Y-4258D01*
X-1014Y-5019D01*
X-19Y-5019D01*
X254851D01*
X255343Y-5019D01*
X256309Y-4827D01*
X257219Y-4450D01*
X258038Y-3903D01*
X258386Y-3555D01*
X265681Y3740D01*
X266029Y4088D01*
X266576Y4907D01*
X266953Y5817D01*
X267145Y6783D01*
D58*
X154290Y303093D02*
D03*
X256790D02*
D03*
Y266094D02*
D03*
X154290D02*
D03*
D59*
X261501Y208100D02*
D03*
Y245100D02*
D03*
D60*
X95000Y311000D02*
D03*
X256737Y164937D02*
D03*
X261000Y141000D02*
D03*
X246999Y184000D02*
D03*
X253500Y198600D02*
D03*
X30000Y146000D02*
D03*
X31326Y136335D02*
D03*
X75013Y148212D02*
D03*
X52000Y146000D02*
D03*
X14800Y146219D02*
D03*
X229000Y156000D02*
D03*
X228536Y189505D02*
D03*
X218000Y201000D02*
D03*
X199000D02*
D03*
X179000Y182000D02*
D03*
X179008Y167948D02*
D03*
X179000Y176000D02*
D03*
X179000Y192000D02*
D03*
X143000Y220599D02*
D03*
Y226600D02*
D03*
X162576Y172600D02*
D03*
X119000Y141000D02*
D03*
X176000Y160600D02*
D03*
X177316Y148758D02*
D03*
X177000Y154600D02*
D03*
X141000Y140600D02*
D03*
X108036Y151918D02*
D03*
X161198Y196094D02*
D03*
X128000Y151000D02*
D03*
X159000Y182600D02*
D03*
X187762Y201035D02*
D03*
X181000Y201600D02*
D03*
X225751Y239601D02*
D03*
X60162Y151949D02*
D03*
X38000Y152000D02*
D03*
X143399Y232449D02*
D03*
X206000Y148600D02*
D03*
X213000D02*
D03*
X219000D02*
D03*
X173494Y143094D02*
D03*
X189854Y148500D02*
D03*
X245000Y158600D02*
D03*
X183700Y148220D02*
D03*
D61*
X65329Y58060D02*
D03*
X51815D02*
D03*
X141592D02*
D03*
X156555D02*
D03*
X171518D02*
D03*
X126629D02*
D03*
X111667D02*
D03*
X81741D02*
D03*
X96704D02*
D03*
X159700Y236300D02*
D03*
X227000Y199600D02*
D03*
X207000D02*
D03*
X151858Y184458D02*
D03*
X154413Y169604D02*
D03*
X75000Y277000D02*
D03*
X105947Y135000D02*
D03*
X97000Y139000D02*
D03*
X116000Y114000D02*
D03*
X124167Y129503D02*
D03*
X128096Y119500D02*
D03*
X178985Y259355D02*
D03*
X156752Y282994D02*
D03*
X113253Y82000D02*
D03*
X219000Y248600D02*
D03*
X52000Y112000D02*
D03*
X57000Y134000D02*
D03*
X206000Y127600D02*
D03*
X65086Y81000D02*
D03*
X225500Y112600D02*
D03*
X35000Y84000D02*
D03*
X20000Y101000D02*
D03*
Y121000D02*
D03*
X73000Y123000D02*
D03*
M02*
