G04*
G04 #@! TF.GenerationSoftware,Altium Limited,Altium Designer,20.0.13 (296)*
G04*
G04 Layer_Color=8388736*
%FSLAX44Y44*%
%MOMM*%
G71*
G01*
G75*
%ADD65C,0.0130*%
D65*
X165539Y272240D02*
X245113D01*
X263140Y315000D02*
X264978Y314239D01*
X245113Y315000D02*
X263140D01*
X245113D02*
X245113Y272240D01*
X165539Y315000D02*
X165539Y272240D01*
X-1014Y315000D02*
X165539D01*
X-2851Y314239D02*
X-1014Y315000D01*
X-4258Y312832D02*
X-2851Y314239D01*
X-5019Y310995D02*
X-4258Y312832D01*
X-5019Y310000D02*
Y310995D01*
Y132223D02*
Y310000D01*
Y132223D02*
X-5019Y131599D01*
X-4521Y130454D01*
X-3608Y129603D01*
X-2431Y129187D01*
X-1808Y129230D01*
X-316Y129233D01*
X2602Y128632D01*
X5249Y127265D01*
X7428Y125234D01*
X8977Y122690D01*
X9782Y119822D01*
Y116843D02*
Y119822D01*
X8977Y113975D02*
X9782Y116843D01*
X7428Y111431D02*
X8977Y113975D01*
X5249Y109400D02*
X7428Y111431D01*
X2602Y108033D02*
X5249Y109400D01*
X-316Y107432D02*
X2602Y108033D01*
X-1808Y107435D02*
X-316Y107432D01*
X-2431Y107478D02*
X-1808Y107435D01*
X-3608Y107062D02*
X-2431Y107478D01*
X-4521Y106211D02*
X-3608Y107062D01*
X-5019Y105066D02*
X-4521Y106211D01*
X-5019Y104442D02*
Y105066D01*
Y-19D02*
Y104442D01*
Y-1014D02*
Y-19D01*
Y-1014D02*
X-4258Y-2851D01*
X-2851Y-4258D01*
X-1014Y-5019D01*
X-19Y-5019D01*
X254851D01*
X255343Y-5019D01*
X256309Y-4827D01*
X257219Y-4450D01*
X258038Y-3903D01*
X258386Y-3555D01*
X265681Y3740D01*
X266029Y4088D01*
X266576Y4907D01*
X266953Y5817D01*
X267145Y6783D01*
Y7276D01*
Y104442D01*
Y105066D01*
X266647Y106211D02*
X267145Y105066D01*
X265734Y107062D02*
X266647Y106211D01*
X264557Y107478D02*
X265734Y107062D01*
X263935Y107435D02*
X264557Y107478D01*
X262442Y107432D02*
X263935Y107435D01*
X259524Y108033D02*
X262442Y107432D01*
X256877Y109400D02*
X259524Y108033D01*
X254698Y111431D02*
X256877Y109400D01*
X253149Y113975D02*
X254698Y111431D01*
X252344Y116843D02*
X253149Y113975D01*
X252344Y116843D02*
Y119822D01*
X253149Y122690D01*
X254698Y125234D01*
X256877Y127265D01*
X259524Y128632D01*
X262442Y129233D01*
X263935Y129230D01*
X264557Y129187D01*
X265734Y129603D01*
X266647Y130454D01*
X267145Y131599D01*
Y132223D01*
Y310000D01*
Y310995D01*
X266384Y312832D02*
X267145Y310995D01*
X264978Y314239D02*
X266384Y312832D01*
M02*
