<?xml version="1.0" encoding="UTF-8"?>
<!DOCTYPE svg PUBLIC "-//W3C//DTD SVG 1.1//EN" "http://www.w3.org/Graphics/SVG/1.1/DTD/svg11.dtd">
<!-- Creator: CorelDRAW 2018 (64 Bit Versión de evaluación) -->
<svg xmlns="http://www.w3.org/2000/svg" xml:space="preserve" width="25.5952mm" height="39.2175mm" version="1.1" style="shape-rendering:geometricPrecision; text-rendering:geometricPrecision; image-rendering:optimizeQuality; fill-rule:evenodd; clip-rule:evenodd"
viewBox="0 0 4759 7291.84"
 xmlns:xlink="http://www.w3.org/1999/xlink">
 <defs>
  <style type="text/css">
   <![CDATA[
    .fil0 {fill:#8BBD05}
    .fil2 {fill:#D2025E}
    .fil1 {fill:#F5266D}
   ]]>
  </style>
 </defs>
 <g id="Capa_x0020_1">
  <metadata id="CorelCorpID_0Corel-Layer"/>
  <path class="fil0" d="M2379.5 0c-49.44,35.48 -80.88,50.93 -134.08,95.98 -41,31.83 -81.72,75.79 -113.4,117.51 -397.67,523.63 -558,1047.12 -182.08,1664.14 71.6,117.53 286.67,450.2 429.56,500.1 142.89,-49.9 357.96,-382.58 429.56,-500.1 375.92,-617.02 215.59,-1140.51 -182.08,-1664.14 -31.68,-41.72 -72.4,-85.68 -113.4,-117.51 -53.2,-45.05 -84.64,-60.5 -134.08,-95.98z"/>
  <path class="fil0" d="M3057.02 2440.36c408.68,20.32 783.5,-100.74 998.83,-321.07 201.22,-205.9 353.09,-613.17 319.56,-997.48 -374.53,-54.37 -805.22,110.78 -1005.9,311.72 -199.92,200.19 -366.59,616.87 -312.5,1006.83z"/>
  <path class="fil0" d="M356.6 1119.99c-46.87,597.33 204.56,1062.33 734.14,1244.9 76.88,26.5 510.15,126.77 574.44,62.31 36.02,-36.11 65.3,-1007.98 -718.89,-1234.5 -181.14,-52.34 -359.54,-97.84 -589.69,-72.7z"/>
  <g>
   <path class="fil1" d="M51.47 5069.75c-1.95,-5.34 -3.81,-10.73 -5.67,-16.12l5.67 16.12zm-24.78 -80.08c-1.49,-5.84 -2.92,-11.71 -4.3,-17.59l4.3 17.59zm-5.24 -21.72c-1.41,-6.21 -2.79,-12.44 -4.07,-18.7l4.07 18.7zm-4.11 -18.84c-1.25,-6.06 -2.38,-12.14 -3.5,-18.26l3.5 18.26zm-4.37 -23.19c-1.1,-6.23 -2.14,-12.49 -3.11,-18.76l3.11 18.76zm-3.12 -18.85c-0.93,-6.1 -1.78,-12.22 -2.58,-18.35l2.58 18.35zm-3.35 -24.43c-0.67,-5.37 -1.26,-10.75 -1.84,-16.16l1.84 16.16zm-2.21 -19.76c-0.58,-5.8 -1.1,-11.64 -1.56,-17.48l1.56 17.48zm-1.95 -22.67c-0.46,-6.21 -0.86,-12.44 -1.17,-18.69l1.17 18.69zm-1.23 -19.58c-0.32,-6.17 -0.52,-12.38 -0.71,-18.59l0.71 18.59zm-0.86 -24.49c-0.15,-6.34 -0.24,-12.72 -0.24,-19.1l0.24 19.1zm1247.78 1794.65c-471.9,0.02 -854.46,-382.54 -854.46,-854.44 0,-76.75 10.11,-151.13 29.1,-221.89l-0.28 -0.17c-59.09,-34.71 -113.66,-76.33 -162.56,-123.72l-0.54 -0.54c-6.28,-6.1 -12.48,-12.31 -18.57,-18.59l-0.43 -0.43 -8.81 -9.24 -1.64 -1.77c-8.83,-9.45 -17.46,-19.1 -25.84,-28.95l-1.26 -1.51c-8.18,-9.63 -16.14,-19.45 -23.89,-29.43l-4.03 -5.26c-3.37,-4.41 -6.69,-8.85 -9.97,-13.33l-4.3 -5.89 -6.3 -8.87 -2.05 -2.96c-4.22,-6.06 -8.35,-12.22 -12.42,-18.39l-2.27 -3.46 -5.62 -8.74 -3.79 -6.1 -8.14 -13.37 -4.7 -7.96 -4.16 -7.27 -4.74 -8.46 -6.12 -11.25 -4.72 -8.94 -4.35 -8.5 -3.89 -7.85 -4.91 -10.15 -5.32 -11.38 -3.31 -7.33 -3.64 -8.35 -5.15 -12.1 -4.5 -11.03 -2.27 -5.8 -5.52 -14.52 -0.78 -2.03 -0.07 -0.22 -0.32 -0.87c-1.95,-5.35 -3.81,-10.71 -5.67,-16.12l-1.93 -5.75 -4.65 -14.28 -0.8 -2.45 -0.06 -0.2 -0.46 -1.56 -4.33 -14.56 -2.27 -8.01 -3.77 -13.96 -0.61 -2.25 -0.04 -0.17 -0.19 -0.76c-1.49,-5.84 -2.92,-11.71 -4.3,-17.59l-0.95 -4.13c-1.41,-6.21 -2.79,-12.44 -4.07,-18.7l-0.04 -0.13c-1.25,-6.06 -2.38,-12.16 -3.5,-18.26l-0.87 -4.93c-1.1,-6.23 -2.14,-12.49 -3.11,-18.76l-0.02 -0.09c-0.93,-6.1 -1.78,-12.2 -2.58,-18.35l-0.76 -6.08c-0.67,-5.37 -1.28,-10.75 -1.84,-16.16l-0.24 -2.06 0 -0.07 -0.13 -1.47c-0.58,-5.8 -1.1,-11.64 -1.56,-17.48l-0.39 -5.19c-0.46,-6.21 -0.86,-12.44 -1.17,-18.69l-0.04 -0.5 0 -0.04 -0.02 -0.35c-0.32,-6.17 -0.52,-12.38 -0.71,-18.59l-0.15 -5.89c-0.15,-6.36 -0.24,-12.72 -0.24,-19.1 0,-323.49 179.8,-604.97 444.88,-750.04 -20.06,-72.64 -30.85,-149.12 -30.85,-228.14 0,-471.9 382.56,-854.46 854.46,-854.46 122.4,0 238.76,25.79 344.03,72.16 139.26,-282.86 430.38,-477.53 766.97,-477.53l0 1234.6 0 474.3 0 305.45 0 929.15 0 100.39 0 679.36 0 1029.53c-436.27,0.02 -796.15,-326.96 -848,-749.22 -83.17,29.23 -172.19,45.98 -264.88,47.95 -6.17,0.13 -12.38,0.24 -18.59,0.24z"/>
  </g>
  <g>
   <path class="fil2" d="M4707.53 5069.75c1.95,-5.34 3.81,-10.73 5.67,-16.12l-5.67 16.12zm24.78 -80.08c1.49,-5.84 2.92,-11.71 4.3,-17.59l-4.3 17.59zm5.24 -21.72c1.41,-6.21 2.79,-12.44 4.07,-18.7l-4.07 18.7zm4.11 -18.84c1.25,-6.06 2.38,-12.14 3.5,-18.26l-3.5 18.26zm4.37 -23.19c1.1,-6.23 2.14,-12.49 3.11,-18.76l-3.11 18.76zm3.12 -18.85c0.93,-6.1 1.78,-12.22 2.58,-18.35l-2.58 18.35zm3.35 -24.43c0.67,-5.37 1.26,-10.75 1.84,-16.16l-1.84 16.16zm2.21 -19.76c0.58,-5.8 1.1,-11.64 1.56,-17.48l-1.56 17.48zm1.95 -22.67c0.46,-6.21 0.86,-12.44 1.17,-18.69l-1.17 18.69zm1.23 -19.58c0.32,-6.17 0.52,-12.38 0.71,-18.59l-0.71 18.59zm0.86 -24.49c0.15,-6.34 0.24,-12.72 0.24,-19.1l-0.24 19.1zm-1247.78 1794.65c471.9,0.02 854.46,-382.54 854.46,-854.44 0,-76.75 -10.11,-151.13 -29.1,-221.89l0.28 -0.17c59.09,-34.71 113.66,-76.33 162.56,-123.72l0.54 -0.54c6.28,-6.1 12.48,-12.31 18.57,-18.59l0.43 -0.43 8.81 -9.24 1.64 -1.77c8.83,-9.45 17.46,-19.1 25.84,-28.95l1.26 -1.51c8.18,-9.63 16.14,-19.45 23.89,-29.43l4.03 -5.26c3.37,-4.41 6.69,-8.85 9.97,-13.33l4.3 -5.89 6.3 -8.87 2.05 -2.96c4.22,-6.06 8.35,-12.22 12.42,-18.39l2.27 -3.46 5.62 -8.74 3.79 -6.1 8.14 -13.37 4.7 -7.96 4.16 -7.27 4.74 -8.46 6.12 -11.25 4.72 -8.94 4.35 -8.5 3.89 -7.85 4.91 -10.15 5.32 -11.38 3.31 -7.33 3.64 -8.35 5.15 -12.1 4.5 -11.03 2.27 -5.8 5.52 -14.52 0.78 -2.03 0.07 -0.22 0.32 -0.87c1.95,-5.35 3.81,-10.71 5.67,-16.12l1.93 -5.75 4.65 -14.28 0.8 -2.45 0.06 -0.2 0.46 -1.56 4.33 -14.56 2.27 -8.01 3.77 -13.96 0.61 -2.25 0.04 -0.17 0.19 -0.76c1.49,-5.84 2.92,-11.71 4.3,-17.59l0.95 -4.13c1.41,-6.21 2.79,-12.44 4.07,-18.7l0.04 -0.13c1.25,-6.06 2.38,-12.16 3.5,-18.26l0.87 -4.93c1.1,-6.23 2.14,-12.49 3.11,-18.76l0.02 -0.09c0.93,-6.1 1.78,-12.2 2.58,-18.35l0.76 -6.08c0.67,-5.37 1.28,-10.75 1.84,-16.16l0.24 -2.06 0 -0.07 0.13 -1.47c0.58,-5.8 1.1,-11.64 1.56,-17.48l0.39 -5.19c0.46,-6.21 0.86,-12.44 1.17,-18.69l0.04 -0.5 0 -0.04 0.02 -0.35c0.32,-6.17 0.52,-12.38 0.71,-18.59l0.15 -5.89c0.15,-6.36 0.24,-12.72 0.24,-19.1 0,-323.49 -179.8,-604.97 -444.88,-750.04 20.06,-72.64 30.85,-149.12 30.85,-228.14 0,-471.9 -382.56,-854.46 -854.46,-854.46 -122.4,0 -238.76,25.79 -344.03,72.16 -139.26,-282.86 -430.38,-477.53 -766.97,-477.53l0 1234.6 0 474.3 0 305.45 0 929.15 0 100.39 0 679.36 0 1029.53c436.27,0.02 796.15,-326.96 848,-749.22 83.17,29.23 172.19,45.98 264.88,47.95 6.17,0.13 12.38,0.24 18.59,0.24z"/>
  </g>
 </g>
</svg>
