M48
;Layer_Color=9474304
;FILE_FORMAT=4:4
METRIC,LZ
;TYPE=PLATED
T1F00S00C0.2000
T2F00S00C0.2500
T3F00S00C0.5999
%
T01
X00056Y00092
X00052Y00146
X00075013Y00148212
X00119Y00141
X00141Y001406
X00173494Y00143094
X00177316Y00148758
X001837Y0014822
X00189854Y001485
X00206Y001486
X00213
X00219
X00261Y00141
X00256Y00092
Y00072
X00241Y00062
X00206Y00092
X00171Y00082
X00161
X00151
X00156Y00092
Y00072
X00136
X00041Y00062
X00026Y00072
X00016
X00006
X0Y00134
X000148Y00146219
X0003Y00146
X00031326Y00136335
X00038Y00152
X00021Y00282
X00006Y00272
X00097Y00277
X00095Y00311
X00143399Y00232449
X00143Y002266
Y00220599
X00143232Y00214696
X00134Y00219
X00161198Y00196094
X00159Y001826
X00162576Y001726
X00179Y00176
X00179Y00182
Y00192
X00181Y002016
X00187762Y00201035
X00199Y00201
X00218
X00228536Y00189505
X00246999Y00184
X00254771Y00189958
X002535Y001986
X00257223Y00174615
X00256737Y00164937
X00245Y001586
X00229Y00156
X00177Y001546
X00176Y001606
X00179008Y00167948
X00128Y00151
X00108036Y00151918
X00060162Y00151949
X00194155Y00231934
X00225751Y00239601
X00235103Y00235949
T02
X00051815Y0005806
X00065329
X00081741
X00096704
X00111667
X00126629
X00141592
X00156555
X00171518
X0016226Y00096314
X00202Y001126
X00214
X002255
X00206Y001276
X0019664Y0014895
X00134167Y00129503
X00124167
X00128096Y001195
X00116Y00114
X00105947Y00135
X00097Y00139
X00073Y00123
X00057Y00134
X00052Y00112
X00045Y00084
X00065086Y00081
X00073Y00087
X00113253Y00082
X00248Y00058
X00035Y00084
X0002Y00101
Y00111
Y00121
X00038Y00127
X00008Y00058
X00015195Y00304324
X00075Y00277
X0014Y00273
X00156752Y00282994
X00169Y002596
X00178985Y00259355
X00187Y00265863
X0017Y002356
X001597Y002363
X00165389Y00214989
X00138Y002006
X00144Y001841
X00151858Y00184458
X00154413Y00169604
X00144Y00169
X00193Y001646
X00213
Y001846
X00193
X00207Y001996
X00227
X00241Y002126
X00259282Y002261
X00219Y002486
T03
X00261501Y002081
Y002451
M30
